<svg width="72" height="72" viewBox="0 0 72 72" fill="none" xmlns="http://www.w3.org/2000/svg">
<path d="M2.57143 15.4286C3.25341 15.4286 3.90747 15.1577 4.3897 14.6754C4.87194 14.1932 5.14286 13.5391 5.14286 12.8571V11.2886C5.14625 9.65967 5.79484 8.09846 6.94665 6.94665C8.09846 5.79484 9.65967 5.14625 11.2886 5.14286H12.8571C13.5391 5.14286 14.1932 4.87194 14.6754 4.3897C15.1577 3.90747 15.4286 3.25341 15.4286 2.57143C15.4286 1.88944 15.1577 1.23539 14.6754 0.753154C14.1932 0.270917 13.5391 0 12.8571 0H11.2886C8.2957 0.00340293 5.42638 1.19382 3.3101 3.3101C1.19382 5.42638 0.00340293 8.2957 0 11.2886V12.8571C0 13.5391 0.270917 14.1932 0.753154 14.6754C1.23539 15.1577 1.88944 15.4286 2.57143 15.4286ZM11.2886 72H12.8571C13.5391 72 14.1932 71.7291 14.6754 71.2468C15.1577 70.7646 15.4286 70.1106 15.4286 69.4286C15.4286 68.7466 15.1577 68.0925 14.6754 67.6103C14.1932 67.1281 13.5391 66.8571 12.8571 66.8571H11.2886C9.65967 66.8537 8.09846 66.2052 6.94665 65.0534C5.79484 63.9015 5.14625 62.3403 5.14286 60.7114V59.1429C5.14286 58.4609 4.87194 57.8068 4.3897 57.3246C3.90747 56.8423 3.25341 56.5714 2.57143 56.5714C1.88944 56.5714 1.23539 56.8423 0.753154 57.3246C0.270917 57.8068 0 58.4609 0 59.1429V60.7114C0.00340293 63.7043 1.19382 66.5736 3.3101 68.6899C5.42638 70.8062 8.2957 71.9966 11.2886 72ZM72 11.2886C71.9966 8.2957 70.8062 5.42638 68.6899 3.3101C66.5736 1.19382 63.7043 0.00340293 60.7114 0H59.1429C58.4609 0 57.8068 0.270917 57.3246 0.753154C56.8423 1.23539 56.5714 1.88944 56.5714 2.57143C56.5714 3.25341 56.8423 3.90747 57.3246 4.3897C57.8068 4.87194 58.4609 5.14286 59.1429 5.14286H60.7114C62.3403 5.14625 63.9015 5.79484 65.0534 6.94665C66.2052 8.09846 66.8537 9.65967 66.8571 11.2886V12.8571C66.8571 13.5391 67.1281 14.1932 67.6103 14.6754C68.0925 15.1577 68.7466 15.4286 69.4286 15.4286C70.1106 15.4286 70.7646 15.1577 71.2468 14.6754C71.7291 14.1932 72 13.5391 72 12.8571V11.2886ZM59.1429 72H60.7114C63.7043 71.9966 66.5736 70.8062 68.6899 68.6899C70.8062 66.5736 71.9966 63.7043 72 60.7114V59.1429C72 58.4609 71.7291 57.8068 71.2468 57.3246C70.7646 56.8423 70.1106 56.5714 69.4286 56.5714C68.7466 56.5714 68.0925 56.8423 67.6103 57.3246C67.1281 57.8068 66.8571 58.4609 66.8571 59.1429V60.7114C66.8537 62.3403 66.2052 63.9015 65.0534 65.0534C63.9015 66.2052 62.3403 66.8537 60.7114 66.8571H59.1429C58.4609 66.8571 57.8068 67.1281 57.3246 67.6103C56.8423 68.0925 56.5714 68.7466 56.5714 69.4286C56.5714 70.1106 56.8423 70.7646 57.3246 71.2468C57.8068 71.7291 58.4609 72 59.1429 72Z" fill="#A0B0C8" fill-opacity="0.8"/>
<path d="M31.6613 56.5718H41.6256C41.6256 57.9358 41.1007 59.2439 40.1663 60.2084C39.232 61.1729 37.9648 61.7147 36.6434 61.7147C35.3221 61.7147 34.0548 61.1729 33.1205 60.2084C32.1862 59.2439 31.6613 57.9358 31.6613 56.5718ZM51.5898 46.2861V30.8576C51.5863 27.2142 50.3337 23.6896 48.054 20.9081C45.7744 18.1266 42.6147 16.2677 39.1345 15.6604V12.8576C39.1345 12.1756 38.872 11.5215 38.4049 11.0393C37.9377 10.5571 37.3041 10.2861 36.6434 10.2861C35.9827 10.2861 35.3491 10.5571 34.882 11.0393C34.4148 11.5215 34.1523 12.1756 34.1523 12.8576V15.6604C30.6722 16.2677 27.5125 18.1266 25.2328 20.9081C22.9531 23.6896 21.7006 27.2142 21.697 30.8576V46.2861L16.7148 51.429H56.572L51.5898 46.2861Z" fill="#A0B0C8" fill-opacity="0.8"/>
</svg>
