<svg width="72" height="72" viewBox="0 0 72 72" fill="none" xmlns="http://www.w3.org/2000/svg">
<path d="M2.57143 15.4286C3.25341 15.4286 3.90747 15.1577 4.3897 14.6754C4.87194 14.1932 5.14286 13.5391 5.14286 12.8571V11.2886C5.14625 9.65967 5.79484 8.09846 6.94665 6.94665C8.09846 5.79484 9.65967 5.14625 11.2886 5.14286H12.8571C13.5391 5.14286 14.1932 4.87194 14.6754 4.3897C15.1577 3.90747 15.4286 3.25341 15.4286 2.57143C15.4286 1.88944 15.1577 1.23539 14.6754 0.753154C14.1932 0.270917 13.5391 0 12.8571 0H11.2886C8.2957 0.00340293 5.42638 1.19382 3.3101 3.3101C1.19382 5.42638 0.00340293 8.2957 0 11.2886V12.8571C0 13.5391 0.270917 14.1932 0.753154 14.6754C1.23539 15.1577 1.88944 15.4286 2.57143 15.4286ZM11.2886 72H12.8571C13.5391 72 14.1932 71.7291 14.6754 71.2468C15.1577 70.7646 15.4286 70.1106 15.4286 69.4286C15.4286 68.7466 15.1577 68.0925 14.6754 67.6103C14.1932 67.1281 13.5391 66.8571 12.8571 66.8571H11.2886C9.65967 66.8537 8.09846 66.2052 6.94665 65.0534C5.79484 63.9015 5.14625 62.3403 5.14286 60.7114V59.1429C5.14286 58.4609 4.87194 57.8068 4.3897 57.3246C3.90747 56.8423 3.25341 56.5714 2.57143 56.5714C1.88944 56.5714 1.23539 56.8423 0.753154 57.3246C0.270917 57.8068 0 58.4609 0 59.1429V60.7114C0.00340293 63.7043 1.19382 66.5736 3.3101 68.6899C5.42638 70.8062 8.2957 71.9966 11.2886 72ZM72 11.2886C71.9966 8.2957 70.8062 5.42638 68.6899 3.3101C66.5736 1.19382 63.7043 0.00340293 60.7114 0H59.1429C58.4609 0 57.8068 0.270917 57.3246 0.753154C56.8423 1.23539 56.5714 1.88944 56.5714 2.57143C56.5714 3.25341 56.8423 3.90747 57.3246 4.3897C57.8068 4.87194 58.4609 5.14286 59.1429 5.14286H60.7114C62.3403 5.14625 63.9015 5.79484 65.0534 6.94665C66.2052 8.09846 66.8537 9.65967 66.8571 11.2886V12.8571C66.8571 13.5391 67.1281 14.1932 67.6103 14.6754C68.0925 15.1577 68.7466 15.4286 69.4286 15.4286C70.1106 15.4286 70.7646 15.1577 71.2468 14.6754C71.7291 14.1932 72 13.5391 72 12.8571V11.2886ZM59.1429 72H60.7114C63.7043 71.9966 66.5736 70.8062 68.6899 68.6899C70.8062 66.5736 71.9966 63.7043 72 60.7114V59.1429C72 58.4609 71.7291 57.8068 71.2468 57.3246C70.7646 56.8423 70.1106 56.5714 69.4286 56.5714C68.7466 56.5714 68.0925 56.8423 67.6103 57.3246C67.1281 57.8068 66.8571 58.4609 66.8571 59.1429V60.7114C66.8537 62.3403 66.2052 63.9015 65.0534 65.0534C63.9015 66.2052 62.3403 66.8537 60.7114 66.8571H59.1429C58.4609 66.8571 57.8068 67.1281 57.3246 67.6103C56.8423 68.0925 56.5714 68.7466 56.5714 69.4286C56.5714 70.1106 56.8423 70.7646 57.3246 71.2468C57.8068 71.7291 58.4609 72 59.1429 72Z" fill="#A0B0C8" fill-opacity="0.8"/>
<path d="M45.5985 14.1428L54.3696 23.0489H45.5985V14.1428ZM41.2129 27.5019H54.3696V56.4465C54.3696 57.037 54.1385 57.6034 53.7273 58.0209C53.3161 58.4385 52.7584 58.673 52.1768 58.673H21.4779C20.8964 58.673 20.3386 58.4385 19.9274 58.0209C19.5162 57.6034 19.2852 57.037 19.2852 56.4465V16.3693C19.2852 15.7788 19.5162 15.2125 19.9274 14.795C20.3386 14.3774 20.8964 14.1428 21.4779 14.1428H41.2129V27.5019ZM25.8635 23.0489C25.8635 23.6394 26.0945 24.2057 26.5057 24.6232C26.917 25.0408 27.4747 25.2754 28.0563 25.2754H34.6346C35.2161 25.2754 35.7739 25.0408 36.1851 24.6232C36.5963 24.2057 36.8274 23.6394 36.8274 23.0489C36.8274 22.4584 36.5963 21.892 36.1851 21.4745C35.7739 21.0569 35.2161 20.8224 34.6346 20.8224H28.0563C27.4747 20.8224 26.917 21.0569 26.5057 21.4745C26.0945 21.892 25.8635 22.4584 25.8635 23.0489ZM47.7912 49.767C47.7912 49.1765 47.5602 48.6102 47.149 48.1926C46.7378 47.7751 46.18 47.5405 45.5985 47.5405H28.0563C27.4747 47.5405 26.917 47.7751 26.5057 48.1926C26.0945 48.6102 25.8635 49.1765 25.8635 49.767C25.8635 50.3575 26.0945 50.9238 26.5057 51.3414C26.917 51.7589 27.4747 51.9935 28.0563 51.9935H45.5985C46.18 51.9935 46.7378 51.7589 47.149 51.3414C47.5602 50.9238 47.7912 50.3575 47.7912 49.767ZM28.0563 38.6344C27.4747 38.6344 26.917 38.869 26.5057 39.2866C26.0945 39.7041 25.8635 40.2704 25.8635 40.861C25.8635 41.4515 26.0945 42.0178 26.5057 42.4353C26.917 42.8529 27.4747 43.0875 28.0563 43.0875H45.5985C46.18 43.0875 46.7378 42.8529 47.149 42.4353C47.5602 42.0178 47.7912 41.4515 47.7912 40.861C47.7912 40.2704 47.5602 39.7041 47.149 39.2866C46.7378 38.869 46.18 38.6344 45.5985 38.6344H28.0563Z" fill="#A0B0C8" fill-opacity="0.8"/>
</svg>
