<svg width="72" height="72" viewBox="0 0 72 72" fill="none" xmlns="http://www.w3.org/2000/svg">
<path d="M2.57143 15.4286C3.25341 15.4286 3.90747 15.1577 4.3897 14.6754C4.87194 14.1932 5.14286 13.5391 5.14286 12.8571V11.2886C5.14625 9.65967 5.79484 8.09846 6.94665 6.94665C8.09846 5.79484 9.65967 5.14625 11.2886 5.14286H12.8571C13.5391 5.14286 14.1932 4.87194 14.6754 4.3897C15.1577 3.90747 15.4286 3.25341 15.4286 2.57143C15.4286 1.88944 15.1577 1.23539 14.6754 0.753154C14.1932 0.270917 13.5391 0 12.8571 0H11.2886C8.2957 0.00340293 5.42638 1.19382 3.3101 3.3101C1.19382 5.42638 0.00340293 8.2957 0 11.2886V12.8571C0 13.5391 0.270917 14.1932 0.753154 14.6754C1.23539 15.1577 1.88944 15.4286 2.57143 15.4286ZM11.2886 72H12.8571C13.5391 72 14.1932 71.7291 14.6754 71.2468C15.1577 70.7646 15.4286 70.1106 15.4286 69.4286C15.4286 68.7466 15.1577 68.0925 14.6754 67.6103C14.1932 67.1281 13.5391 66.8571 12.8571 66.8571H11.2886C9.65967 66.8537 8.09846 66.2052 6.94665 65.0534C5.79484 63.9015 5.14625 62.3403 5.14286 60.7114V59.1429C5.14286 58.4609 4.87194 57.8068 4.3897 57.3246C3.90747 56.8423 3.25341 56.5714 2.57143 56.5714C1.88944 56.5714 1.23539 56.8423 0.753154 57.3246C0.270917 57.8068 0 58.4609 0 59.1429V60.7114C0.00340293 63.7043 1.19382 66.5736 3.3101 68.6899C5.42638 70.8062 8.2957 71.9966 11.2886 72ZM72 11.2886C71.9966 8.2957 70.8062 5.42638 68.6899 3.3101C66.5736 1.19382 63.7043 0.00340293 60.7114 0H59.1429C58.4609 0 57.8068 0.270917 57.3246 0.753154C56.8423 1.23539 56.5714 1.88944 56.5714 2.57143C56.5714 3.25341 56.8423 3.90747 57.3246 4.3897C57.8068 4.87194 58.4609 5.14286 59.1429 5.14286H60.7114C62.3403 5.14625 63.9015 5.79484 65.0534 6.94665C66.2052 8.09846 66.8537 9.65967 66.8571 11.2886V12.8571C66.8571 13.5391 67.1281 14.1932 67.6103 14.6754C68.0925 15.1577 68.7466 15.4286 69.4286 15.4286C70.1106 15.4286 70.7646 15.1577 71.2468 14.6754C71.7291 14.1932 72 13.5391 72 12.8571V11.2886ZM59.1429 72H60.7114C63.7043 71.9966 66.5736 70.8062 68.6899 68.6899C70.8062 66.5736 71.9966 63.7043 72 60.7114V59.1429C72 58.4609 71.7291 57.8068 71.2468 57.3246C70.7646 56.8423 70.1106 56.5714 69.4286 56.5714C68.7466 56.5714 68.0925 56.8423 67.6103 57.3246C67.1281 57.8068 66.8571 58.4609 66.8571 59.1429V60.7114C66.8537 62.3403 66.2052 63.9015 65.0534 65.0534C63.9015 66.2052 62.3403 66.8537 60.7114 66.8571H59.1429C58.4609 66.8571 57.8068 67.1281 57.3246 67.6103C56.8423 68.0925 56.5714 68.7466 56.5714 69.4286C56.5714 70.1106 56.8423 70.7646 57.3246 71.2468C57.8068 71.7291 58.4609 72 59.1429 72Z" fill="#A0B0C8" fill-opacity="0.8"/>
<path d="M35.9992 27.4313L15.4277 18.8572L35.9992 10.2856L56.5706 18.8572L35.9992 27.4313ZM15.4277 31.4123L35.1043 38.7006C35.685 38.9156 36.3236 38.9156 36.9043 38.7006L56.5706 31.4123V25.9243L35.9992 33.5469L15.4277 25.9243V31.4123ZM15.4277 42.8411L35.1043 50.1319C35.685 50.347 36.3236 50.347 36.9043 50.1319L56.5706 42.8411V37.3556L35.9992 44.9756L15.4277 37.3556V42.8411ZM15.4277 54.2621L35.1043 61.5529C35.685 61.768 36.3236 61.768 36.9043 61.5529L56.5706 54.2621V48.7843L35.9992 56.4069L15.4277 48.7843V54.2621Z" fill="#A0B0C8" fill-opacity="0.8"/>
</svg>
