<svg width="72" height="72" viewBox="0 0 72 72" fill="none" xmlns="http://www.w3.org/2000/svg">
<g clip-path="url(#clip0_230_176)">
<path d="M2.57143 15.9911C3.25341 15.9911 3.90747 15.7202 4.3897 15.2379C4.87194 14.7557 5.14286 14.1016 5.14286 13.4196V11.8511C5.14625 10.2222 5.79484 8.66096 6.94665 7.50915C8.09846 6.35734 9.65967 5.70875 11.2886 5.70536H12.8571C13.5391 5.70536 14.1932 5.43444 14.6754 4.9522C15.1577 4.46997 15.4286 3.81591 15.4286 3.13393C15.4286 2.45194 15.1577 1.79789 14.6754 1.31565C14.1932 0.833417 13.5391 0.5625 12.8571 0.5625H11.2886C8.2957 0.565903 5.42638 1.75632 3.3101 3.8726C1.19382 5.98888 0.00340293 8.8582 0 11.8511V13.4196C0 14.1016 0.270917 14.7557 0.753154 15.2379C1.23539 15.7202 1.88944 15.9911 2.57143 15.9911ZM11.2886 72.5625H12.8571C13.5391 72.5625 14.1932 72.2916 14.6754 71.8093C15.1577 71.3271 15.4286 70.6731 15.4286 69.9911C15.4286 69.3091 15.1577 68.655 14.6754 68.1728C14.1932 67.6906 13.5391 67.4196 12.8571 67.4196H11.2886C9.65967 67.4162 8.09846 66.7677 6.94665 65.6159C5.79484 64.464 5.14625 62.9028 5.14286 61.2739V59.7054C5.14286 59.0234 4.87194 58.3693 4.3897 57.8871C3.90747 57.4048 3.25341 57.1339 2.57143 57.1339C1.88944 57.1339 1.23539 57.4048 0.753154 57.8871C0.270917 58.3693 0 59.0234 0 59.7054V61.2739C0.00340293 64.2668 1.19382 67.1361 3.3101 69.2524C5.42638 71.3687 8.2957 72.5591 11.2886 72.5625ZM72 11.8511C71.9966 8.8582 70.8062 5.98888 68.6899 3.8726C66.5736 1.75632 63.7043 0.565903 60.7114 0.5625H59.1429C58.4609 0.5625 57.8068 0.833417 57.3246 1.31565C56.8423 1.79789 56.5714 2.45194 56.5714 3.13393C56.5714 3.81591 56.8423 4.46997 57.3246 4.9522C57.8068 5.43444 58.4609 5.70536 59.1429 5.70536H60.7114C62.3403 5.70875 63.9015 6.35734 65.0534 7.50915C66.2052 8.66096 66.8537 10.2222 66.8571 11.8511V13.4196C66.8571 14.1016 67.1281 14.7557 67.6103 15.2379C68.0925 15.7202 68.7466 15.9911 69.4286 15.9911C70.1106 15.9911 70.7646 15.7202 71.2468 15.2379C71.7291 14.7557 72 14.1016 72 13.4196V11.8511ZM59.1429 72.5625H60.7114C63.7043 72.5591 66.5736 71.3687 68.6899 69.2524C70.8062 67.1361 71.9966 64.2668 72 61.2739V59.7054C72 59.0234 71.7291 58.3693 71.2468 57.8871C70.7646 57.4048 70.1106 57.1339 69.4286 57.1339C68.7466 57.1339 68.0925 57.4048 67.6103 57.8871C67.1281 58.3693 66.8571 59.0234 66.8571 59.7054V61.2739C66.8537 62.9028 66.2052 64.464 65.0534 65.6159C63.9015 66.7677 62.3403 67.4162 60.7114 67.4196H59.1429C58.4609 67.4196 57.8068 67.6906 57.3246 68.1728C56.8423 68.655 56.5714 69.3091 56.5714 69.9911C56.5714 70.6731 56.8423 71.3271 57.3246 71.8093C57.8068 72.2916 58.4609 72.5625 59.1429 72.5625Z" fill="#A0B0C8" fill-opacity="0.8"/>
<path d="M36.0006 36.5626C41.6812 36.5626 46.2863 31.9576 46.2863 26.2769C46.2863 20.5963 41.6812 15.9912 36.0006 15.9912C30.3199 15.9912 25.7148 20.5963 25.7148 26.2769C25.7148 31.9576 30.3199 36.5626 36.0006 36.5626Z" fill="#A0B0C8" fill-opacity="0.8"/>
<path d="M23.2577 39.6608C20.8447 41.2958 18.8692 43.4973 17.5041 46.0727C16.1391 48.6481 15.4262 51.5189 15.4277 54.4336C15.4277 55.1497 15.7122 55.8365 16.2185 56.3428C16.7249 56.8492 17.4117 57.1336 18.1277 57.1336H53.8706C54.5867 57.1336 55.2734 56.8492 55.7798 56.3428C56.2861 55.8365 56.5706 55.1497 56.5706 54.4336C56.5722 51.5189 55.8592 48.6481 54.4942 46.0727C53.1292 43.4973 51.1537 41.2958 48.7406 39.6608C48.0158 39.1801 47.1693 38.9152 46.2998 38.897C45.4303 38.8788 44.5735 39.108 43.8292 39.5579C41.4564 40.9554 38.7529 41.6924 35.9992 41.6924C33.2454 41.6924 30.5419 40.9554 28.1692 39.5579C27.4249 39.108 26.5681 38.8788 25.6985 38.897C24.829 38.9152 23.9825 39.1801 23.2577 39.6608Z" fill="#A0B0C8" fill-opacity="0.8"/>
</g>
<defs>
<clipPath id="clip0_230_176">
<rect width="72" height="72" fill="white"/>
</clipPath>
</defs>
</svg>
