<svg width="72" height="72" viewBox="0 0 72 72" fill="none" xmlns="http://www.w3.org/2000/svg">
<g clip-path="url(#clip0_230_185)">
<path d="M2.57143 15.4286C3.25341 15.4286 3.90747 15.1577 4.3897 14.6754C4.87194 14.1932 5.14286 13.5391 5.14286 12.8571V11.2886C5.14625 9.65967 5.79484 8.09846 6.94665 6.94665C8.09846 5.79484 9.65967 5.14625 11.2886 5.14286H12.8571C13.5391 5.14286 14.1932 4.87194 14.6754 4.3897C15.1577 3.90747 15.4286 3.25341 15.4286 2.57143C15.4286 1.88944 15.1577 1.23539 14.6754 0.753154C14.1932 0.270917 13.5391 0 12.8571 0H11.2886C8.2957 0.00340293 5.42638 1.19382 3.3101 3.3101C1.19382 5.42638 0.00340293 8.2957 0 11.2886V12.8571C0 13.5391 0.270917 14.1932 0.753154 14.6754C1.23539 15.1577 1.88944 15.4286 2.57143 15.4286ZM12.8571 66.8571H11.2886C9.65967 66.8537 8.09846 66.2052 6.94665 65.0534C5.79484 63.9015 5.14625 62.3403 5.14286 60.7114V59.1429C5.14286 58.4609 4.87194 57.8068 4.3897 57.3246C3.90747 56.8423 3.25341 56.5714 2.57143 56.5714C1.88944 56.5714 1.23539 56.8423 0.753154 57.3246C0.270917 57.8068 0 58.4609 0 59.1429V60.7114C0.00340293 63.7043 1.19382 66.5736 3.3101 68.6899C5.42638 70.8062 8.2957 71.9966 11.2886 72H12.8571C13.5391 72 14.1932 71.7291 14.6754 71.2468C15.1577 70.7646 15.4286 70.1106 15.4286 69.4286C15.4286 68.7466 15.1577 68.0925 14.6754 67.6103C14.1932 67.1281 13.5391 66.8571 12.8571 66.8571ZM60.7114 0H59.1429C58.4609 0 57.8068 0.270917 57.3246 0.753154C56.8423 1.23539 56.5714 1.88944 56.5714 2.57143C56.5714 3.25341 56.8423 3.90747 57.3246 4.3897C57.8068 4.87194 58.4609 5.14286 59.1429 5.14286H60.7114C62.3403 5.14625 63.9015 5.79484 65.0534 6.94665C66.2052 8.09846 66.8537 9.65967 66.8571 11.2886V12.8571C66.8571 13.5391 67.1281 14.1932 67.6103 14.6754C68.0925 15.1577 68.7466 15.4286 69.4286 15.4286C70.1106 15.4286 70.7646 15.1577 71.2468 14.6754C71.7291 14.1932 72 13.5391 72 12.8571V11.2886C71.9966 8.2957 70.8062 5.42638 68.6899 3.3101C66.5736 1.19382 63.7043 0.00340293 60.7114 0ZM69.4286 56.5714C68.7466 56.5714 68.0925 56.8423 67.6103 57.3246C67.1281 57.8068 66.8571 58.4609 66.8571 59.1429V60.7114C66.8537 62.3403 66.2052 63.9015 65.0534 65.0534C63.9015 66.2052 62.3403 66.8537 60.7114 66.8571H59.1429C58.4609 66.8571 57.8068 67.1281 57.3246 67.6103C56.8423 68.0925 56.5714 68.7466 56.5714 69.4286C56.5714 70.1106 56.8423 70.7646 57.3246 71.2468C57.8068 71.7291 58.4609 72 59.1429 72H60.7114C63.7043 71.9966 66.5736 70.8062 68.6899 68.6899C70.8062 66.5736 71.9966 63.7043 72 60.7114V59.1429C72 58.4609 71.7291 57.8068 71.2468 57.3246C70.7646 56.8423 70.1106 56.5714 69.4286 56.5714ZM37.5686 46.2857C37.0237 45.9517 36.4615 45.647 35.8843 45.3729C35.6923 45.2862 35.5245 45.1538 35.3957 44.9871C35.2155 44.7417 35.1282 44.4404 35.1494 44.1366C35.1706 43.8329 35.2989 43.5466 35.5114 43.3286C36.5441 42.3125 37.3506 41.0898 37.8779 39.7405C38.4052 38.3911 38.6416 36.9456 38.5714 35.4986C38.55 35.0676 38.5027 34.6382 38.43 34.2129C38.3423 33.7241 38.2176 33.2427 38.0571 32.7729C38.0571 32.6314 37.9543 32.49 37.89 32.3357C37.7652 32.0114 37.6235 31.6939 37.4657 31.3843C37.3886 31.2429 37.3243 31.0886 37.2471 30.9471C37.0167 30.5402 36.759 30.1493 36.4757 29.7771C35.5986 28.7129 34.5163 27.836 33.2934 27.1984C32.0705 26.5609 30.7319 26.1758 29.3571 26.066C27.9824 25.9563 26.5996 26.1241 25.291 26.5595C23.9825 26.995 22.7748 27.6891 21.7399 28.6007C20.705 29.5123 19.864 30.6226 19.2669 31.8658C18.6698 33.109 18.3288 34.4595 18.2641 35.8371C18.1995 37.2147 18.4126 38.5912 18.8907 39.8848C19.3688 41.1784 20.1021 42.3627 21.0471 43.3671C21.189 43.5148 21.2936 43.6941 21.3521 43.8903C21.4107 44.0865 21.4216 44.2938 21.3838 44.495C21.3461 44.6962 21.2609 44.8855 21.1352 45.0472C21.0096 45.2088 20.8471 45.3381 20.6614 45.4243C17.3461 46.9661 14.5758 49.4764 12.7157 52.6243C12.1721 53.5369 11.8792 54.5769 11.8667 55.6391C11.8542 56.7013 12.1225 57.7479 12.6445 58.6731C13.1664 59.5982 13.9235 60.3691 14.8391 60.9077C15.7547 61.4462 16.7963 61.7334 17.8586 61.74H38.6743C39.7103 61.7495 40.7311 61.4897 41.6364 60.9859C42.5417 60.4821 43.3006 59.7516 43.8386 58.8662C44.3766 57.9807 44.6753 56.9707 44.7053 55.935C44.7354 54.8994 44.4958 53.8737 44.01 52.9586C42.4797 50.212 40.2595 47.912 37.5686 46.2857ZM59.2071 37.1443C57.3519 34.0161 54.5961 31.5202 51.3 29.9829C51.1096 29.8979 50.9428 29.768 50.8138 29.6042C50.6848 29.4405 50.5976 29.2478 50.5596 29.0428C50.5217 28.8379 50.5341 28.6267 50.5959 28.4276C50.6577 28.2285 50.767 28.0475 50.9143 27.9C52.4446 26.3821 53.4675 24.4278 53.8428 22.3053C54.218 20.1829 53.9271 17.9963 53.01 16.0457C52.0493 13.8549 50.281 12.1188 48.0729 11.1986C46.7837 10.6113 45.388 10.2939 43.9716 10.2659C42.5552 10.2379 41.1481 10.4999 39.8367 11.0358C38.5253 11.5717 37.3373 12.3701 36.3459 13.382C35.3544 14.3939 34.5804 15.5979 34.0714 16.92C33.8545 17.4849 33.7628 18.0902 33.8028 18.694C33.8427 19.2978 34.0134 19.8857 34.3029 20.4171C34.9258 21.535 35.8076 22.4873 36.8743 23.1943C38.5956 24.3456 40.0661 25.8333 41.1974 27.5678C42.3287 29.3023 43.0974 31.2478 43.4571 33.2871C43.8701 35.6665 43.7248 38.1092 43.0329 40.4229C42.7983 41.2266 42.7907 42.0795 43.0108 42.8873C43.2309 43.6952 43.6702 44.4263 44.28 45C45.1149 45.8181 46.2354 46.2792 47.4043 46.2857H54C55.07 46.2891 56.1216 46.0084 57.0475 45.4722C57.9734 44.936 58.7404 44.1635 59.27 43.2338C59.7995 42.3041 60.0728 41.2505 60.0617 40.1806C60.0507 39.1107 59.7558 38.0629 59.2071 37.1443Z" fill="#A0B0C8" fill-opacity="0.8"/>
</g>
<defs>
<clipPath id="clip0_230_185">
<rect width="72" height="72" fill="white"/>
</clipPath>
</defs>
</svg>
