<svg width="72" height="72" viewBox="0 0 72 72" fill="none" xmlns="http://www.w3.org/2000/svg">
<path d="M2.57143 15.4286C3.25341 15.4286 3.90747 15.1577 4.3897 14.6754C4.87194 14.1932 5.14286 13.5391 5.14286 12.8571V11.2886C5.14625 9.65967 5.79484 8.09846 6.94665 6.94665C8.09846 5.79484 9.65967 5.14625 11.2886 5.14286H12.8571C13.5391 5.14286 14.1932 4.87194 14.6754 4.3897C15.1577 3.90747 15.4286 3.25341 15.4286 2.57143C15.4286 1.88944 15.1577 1.23539 14.6754 0.753154C14.1932 0.270917 13.5391 0 12.8571 0H11.2886C8.2957 0.00340293 5.42638 1.19382 3.3101 3.3101C1.19382 5.42638 0.00340293 8.2957 0 11.2886V12.8571C0 13.5391 0.270917 14.1932 0.753154 14.6754C1.23539 15.1577 1.88944 15.4286 2.57143 15.4286ZM11.2886 72H12.8571C13.5391 72 14.1932 71.7291 14.6754 71.2468C15.1577 70.7646 15.4286 70.1106 15.4286 69.4286C15.4286 68.7466 15.1577 68.0925 14.6754 67.6103C14.1932 67.1281 13.5391 66.8571 12.8571 66.8571H11.2886C9.65967 66.8537 8.09846 66.2052 6.94665 65.0534C5.79484 63.9015 5.14625 62.3403 5.14286 60.7114V59.1429C5.14286 58.4609 4.87194 57.8068 4.3897 57.3246C3.90747 56.8423 3.25341 56.5714 2.57143 56.5714C1.88944 56.5714 1.23539 56.8423 0.753154 57.3246C0.270917 57.8068 0 58.4609 0 59.1429V60.7114C0.00340293 63.7043 1.19382 66.5736 3.3101 68.6899C5.42638 70.8062 8.2957 71.9966 11.2886 72ZM72 11.2886C71.9966 8.2957 70.8062 5.42638 68.6899 3.3101C66.5736 1.19382 63.7043 0.00340293 60.7114 0H59.1429C58.4609 0 57.8068 0.270917 57.3246 0.753154C56.8423 1.23539 56.5714 1.88944 56.5714 2.57143C56.5714 3.25341 56.8423 3.90747 57.3246 4.3897C57.8068 4.87194 58.4609 5.14286 59.1429 5.14286H60.7114C62.3403 5.14625 63.9015 5.79484 65.0534 6.94665C66.2052 8.09846 66.8537 9.65967 66.8571 11.2886V12.8571C66.8571 13.5391 67.1281 14.1932 67.6103 14.6754C68.0925 15.1577 68.7466 15.4286 69.4286 15.4286C70.1106 15.4286 70.7646 15.1577 71.2468 14.6754C71.7291 14.1932 72 13.5391 72 12.8571V11.2886ZM59.1429 72H60.7114C63.7043 71.9966 66.5736 70.8062 68.6899 68.6899C70.8062 66.5736 71.9966 63.7043 72 60.7114V59.1429C72 58.4609 71.7291 57.8068 71.2468 57.3246C70.7646 56.8423 70.1106 56.5714 69.4286 56.5714C68.7466 56.5714 68.0925 56.8423 67.6103 57.3246C67.1281 57.8068 66.8571 58.4609 66.8571 59.1429V60.7114C66.8537 62.3403 66.2052 63.9015 65.0534 65.0534C63.9015 66.2052 62.3403 66.8537 60.7114 66.8571H59.1429C58.4609 66.8571 57.8068 67.1281 57.3246 67.6103C56.8423 68.0925 56.5714 68.7466 56.5714 69.4286C56.5714 70.1106 56.8423 70.7646 57.3246 71.2468C57.8068 71.7291 58.4609 72 59.1429 72Z" fill="#A0B0C8" fill-opacity="0.8"/>
<path d="M55.2966 47.8315C55.7771 48.3137 56.1374 48.9023 56.3481 49.5497C56.5589 50.197 56.6142 50.8849 56.5097 51.5577C56.4052 52.2304 56.1437 52.869 55.7464 53.4219C55.3491 53.9748 54.8273 54.4263 54.223 54.7399C50.7701 56.5855 46.7471 57.0571 42.961 56.0603C32.9123 53.5306 18.4686 39.0864 15.939 29.0374C14.9422 25.2512 15.4138 21.228 17.2593 17.775C17.573 17.1707 18.0245 16.6488 18.5773 16.2515C19.1302 15.8543 19.7688 15.5928 20.4415 15.4882C21.1142 15.3837 21.8021 15.439 22.4494 15.6498C23.0967 15.8605 23.6853 16.2208 24.1675 16.7014L28.4556 20.9875C29.074 21.5997 29.4924 22.3849 29.6558 23.2396C29.8191 24.0943 29.7198 24.9784 29.3708 25.7755C28.9889 26.6698 28.4466 27.4868 27.7707 28.1859C22.8677 33.0891 38.9115 49.1334 43.8124 44.2282C44.5117 43.5499 45.3293 43.0054 46.2248 42.6219C47.0218 42.2723 47.906 42.1726 48.7608 42.336C49.6156 42.4994 50.4008 42.9182 51.0126 43.5371L55.2966 47.8315ZM33.0583 17.0202C32.808 17.132 32.5826 17.2927 32.3953 17.4929C32.208 17.693 32.0626 17.9287 31.9677 18.1858C31.8727 18.443 31.8302 18.7166 31.8425 18.9905C31.8548 19.2643 31.9218 19.533 32.0394 19.7806C32.157 20.0282 32.323 20.2498 32.5275 20.4324C32.732 20.615 32.971 20.7548 33.2303 20.8437C33.4896 20.9325 33.7641 20.9687 34.0376 20.9499C34.3111 20.9312 34.5781 20.858 34.8229 20.7345C37.1238 19.6416 39.7067 19.2875 42.2169 19.7209C44.727 20.1543 47.0416 21.354 48.8428 23.1553C50.6441 24.9566 51.8437 27.2713 52.2771 29.7815C52.7106 32.2918 52.3565 34.8747 51.2635 37.1758C51.0295 37.6686 51.0009 38.2342 51.1839 38.7481C51.3669 39.2621 51.7466 39.6823 52.2394 39.9163C52.7322 40.1503 53.2978 40.179 53.8117 39.9959C54.3257 39.8129 54.7459 39.4332 54.9799 38.9404C56.4368 35.8723 56.9086 32.4286 56.3305 29.0817C55.7524 25.7348 54.1527 22.6488 51.7511 20.2473C49.3494 17.8458 46.2634 16.2464 42.9166 15.6686C39.5697 15.0908 36.1261 15.5629 33.0583 17.0202ZM43.0206 37.7043C43.4063 38.0899 43.9293 38.3065 44.4746 38.3065C45.02 38.3065 45.543 38.0899 45.9287 37.7043C46.7065 36.9435 47.3258 36.0359 47.7505 35.0342C48.1752 34.0324 48.397 32.9563 48.403 31.8682C48.409 30.7801 48.199 29.7016 47.7854 28.6952C47.3717 27.6888 46.7625 26.7745 45.9931 26.0052C45.2236 25.2358 44.3092 24.6268 43.3028 24.2133C42.2963 23.7998 41.2179 23.5901 40.1298 23.5963C39.0418 23.6024 37.9658 23.8244 36.9641 24.2493C35.9624 24.6742 35.055 25.2936 34.2943 26.0717C33.9197 26.4596 33.7124 26.9791 33.7171 27.5183C33.7218 28.0576 33.9381 28.5735 34.3194 28.9548C34.7007 29.3361 35.2165 29.5524 35.7558 29.5571C36.295 29.5618 36.8145 29.3545 37.2024 28.9798C37.986 28.2314 39.0279 27.8138 40.1115 27.8138C41.1951 27.8138 42.237 28.2314 43.0206 28.9798C43.7917 29.7512 44.2249 30.7973 44.2249 31.888C44.2249 32.9787 43.7917 34.0248 43.0206 34.7962C42.635 35.1818 42.4184 35.7049 42.4184 36.2502C42.4184 36.7956 42.635 37.3186 43.0206 37.7043Z" fill="#A0B0C8" fill-opacity="0.8"/>
</svg>
