<svg width="31" height="31" viewBox="0 0 31 31" fill="none" xmlns="http://www.w3.org/2000/svg">
<g clip-path="url(#clip0_230_420)">
<path fill-rule="evenodd" clip-rule="evenodd" d="M21.8601 19.6167L18.7262 19.0273C18.1925 18.9275 17.8369 18.385 17.9309 17.8168C18.0249 17.2481 18.533 16.8694 19.0668 16.9691L22.4932 17.6134C23.0451 17.7248 23.5312 18.0482 23.8471 18.5142C24.1631 18.9802 24.2835 19.5516 24.1827 20.1055C24.1779 20.1316 24.1696 20.1549 24.1648 20.1805C24.0064 20.7487 23.741 21.2689 23.352 21.7165C21.1166 24.2861 15.8156 23.546 11.5124 20.0619C7.20877 16.5792 5.53187 11.672 7.76822 9.10289C8.30007 8.49064 9.00822 8.07069 9.8336 7.8285C9.90287 7.81106 9.96971 7.78636 10.039 7.77619L10.0414 7.77473C10.502 7.70568 10.9724 7.79297 11.3775 8.02267C11.7826 8.25236 12.0991 8.6112 12.2763 9.04186L13.4964 12.3109C13.6771 12.7943 13.4214 13.3291 12.9244 13.5049C12.4289 13.6812 11.8806 13.4322 11.6999 12.9488L10.5786 9.94377C10.5344 9.84696 10.456 9.7699 10.3584 9.72743C10.2609 9.68495 10.1511 9.68006 10.0501 9.71369C9.74611 9.85279 9.47454 10.0539 9.25283 10.3041C7.70526 12.0833 9.27366 15.8115 12.7578 18.6305C16.2419 21.4496 20.3213 22.2939 21.8684 20.5153C21.9638 20.4048 22.0432 20.2861 22.1144 20.1621C22.1341 20.1272 22.1478 20.0892 22.1551 20.0498C22.1699 19.9537 22.1477 19.8555 22.0929 19.7751C22.0382 19.6948 21.955 19.6382 21.8601 19.6167Z" fill="#526179"/>
<circle cx="15.5" cy="15.5" r="14.5" stroke="#526179" stroke-width="2"/>
</g>
<defs>
<clipPath id="clip0_230_420">
<rect width="31" height="31" fill="white"/>
</clipPath>
</defs>
</svg>
