<svg width="31" height="31" viewBox="0 0 31 31" fill="none" xmlns="http://www.w3.org/2000/svg">
<path fill-rule="evenodd" clip-rule="evenodd" d="M30.8603 6.43734L26.7761 26.1059C26.3324 28.286 24.8589 29.0625 23.6271 29.0625C22.9916 29.0625 22.3319 28.8721 21.6644 28.4953L21.5535 28.4318L21.4499 28.3543L12.9568 21.9432L12.6376 25.6898C12.471 26.5651 11.6747 27.1938 10.7684 27.1192C10.4384 27.0917 10.1229 26.9716 9.85806 26.7728C9.59322 26.5741 9.38982 26.3046 9.27123 25.9954L7.85395 21.7402C7.78644 21.6077 7.75078 21.4612 7.74981 21.3125C7.74981 21.0556 7.85187 20.8092 8.03355 20.6275C8.21522 20.4458 8.46163 20.3438 8.71856 20.3438C9.14142 20.3438 9.49598 20.615 9.6287 20.9918C9.62967 20.9918 9.63112 20.9909 9.63209 20.9894L10.7956 24.4842L10.9661 22.4842V22.4808C11.0167 21.8656 11.3096 21.2956 11.7804 20.8963C12.2512 20.497 12.8613 20.301 13.4766 20.3515C13.8994 20.3854 14.2835 20.536 14.6076 20.7618L22.6167 26.8077C22.9897 27.018 23.3288 27.1245 23.6271 27.1245C24.2457 27.1245 24.685 26.6644 24.8773 25.7193L28.9693 6.014C29.3035 4.64806 28.6985 3.875 27.8843 3.875C27.6765 3.875 27.4556 3.92538 27.2314 4.02855L3.20443 13.4966C1.56386 14.1694 1.57354 15.1038 2.90509 15.5199L6.87648 16.787C6.87745 16.787 6.88132 16.7846 6.88229 16.7855C7.0217 16.8293 7.16894 16.8422 7.31385 16.8236C7.45877 16.805 7.59792 16.7551 7.72171 16.6775C7.72656 16.6751 7.72995 16.6761 7.73431 16.6736L18.3605 9.97716C18.794 9.70975 19.3153 9.62391 19.8116 9.73824C20.308 9.85257 20.7392 10.1579 21.012 10.588C21.2412 10.9506 21.3433 11.3792 21.3022 11.8062C21.2612 12.2332 21.0794 12.6345 20.7853 12.9469L15.216 18.5157V18.5167L15.2009 18.5307L15.2 18.5298C15.0207 18.7029 14.7813 18.7998 14.532 18.8C14.2751 18.8 14.0287 18.698 13.847 18.5163C13.6653 18.3346 13.5633 18.0882 13.5633 17.8313C13.5633 17.5717 13.6664 17.3367 13.8336 17.1629L13.8326 17.1619L19.3516 11.642L8.72582 18.338C8.36475 18.5578 7.96075 18.6977 7.54105 18.7481C7.12134 18.7986 6.6957 18.7585 6.29281 18.6305C6.287 18.6281 6.28118 18.6305 6.27489 18.6281L2.32723 17.3692C0.246839 16.7187 0.0220895 15.2108 0.00223011 14.7647C-0.0292543 14.013 0.247324 12.6151 2.46915 11.7035L2.48078 11.6986L2.49337 11.6938L26.4772 2.24362C26.9196 2.04409 27.399 1.9398 27.8843 1.9375C28.8332 1.9375 29.7085 2.35891 30.2858 3.09564C30.964 3.95734 31.1669 5.14309 30.8603 6.43734ZM14.5311 24.2188C14.6601 24.2158 14.7884 24.2387 14.9084 24.2861C15.0284 24.3334 15.1378 24.4043 15.2301 24.4945C15.3224 24.5847 15.3957 24.6924 15.4458 24.8113C15.4959 24.9302 15.5217 25.058 15.5217 25.187C15.5217 25.3161 15.496 25.4438 15.446 25.5628C15.396 25.6817 15.3227 25.7895 15.2304 25.8797C15.1382 25.9699 15.0289 26.0409 14.9088 26.0883C14.7888 26.1357 14.6606 26.1586 14.5315 26.1558C14.2784 26.1502 14.0376 26.0457 13.8605 25.8647C13.6834 25.6838 13.5843 25.4407 13.5842 25.1875C13.5841 24.9343 13.6832 24.6912 13.8602 24.5101C14.0371 24.3291 14.2779 24.2245 14.5311 24.2188Z" fill="#0088CC"/>
</svg>
