<svg width="31" height="31" viewBox="0 0 31 31" fill="none" xmlns="http://www.w3.org/2000/svg">
<g clip-path="url(#clip0_230_425)">
<path fill-rule="evenodd" clip-rule="evenodd" d="M21.8608 19.6167L18.7269 19.0272C18.1931 18.9274 17.8376 18.3849 17.9316 17.8168C18.0255 17.2481 18.5336 16.8693 19.0674 16.9691L22.4939 17.6133C23.0457 17.7247 23.5319 18.0482 23.8478 18.5142C24.1637 18.9802 24.2842 19.5515 24.1834 20.1054C24.1785 20.1316 24.1703 20.1548 24.1655 20.1805C24.0071 20.7487 23.7416 21.2689 23.3527 21.7165C21.1173 24.2861 15.8163 23.546 11.5131 20.0618C7.20944 16.5792 5.53253 11.672 7.76889 9.10286C8.30073 8.49061 9.00889 8.07066 9.83427 7.82847C9.90353 7.81103 9.97038 7.78633 10.0396 7.77616C10.0396 7.77616 10.0406 7.7747 10.0421 7.7747C10.5026 7.70565 10.973 7.79294 11.3782 8.02264C11.7833 8.25233 12.0997 8.61117 12.277 9.04183L13.4971 12.3109C13.6778 12.7943 13.422 13.329 12.9251 13.5049C12.4295 13.6812 11.8812 13.4322 11.7006 12.9488L10.5792 9.94373C10.5351 9.84693 10.4567 9.76987 10.3591 9.7274C10.2616 9.68492 10.1517 9.68003 10.0508 9.71366C9.74678 9.85276 9.47521 10.0539 9.2535 10.3041C7.70592 12.0832 9.27433 15.8115 12.7584 18.6305C16.2425 21.4496 20.322 22.2938 21.869 20.5152C21.9645 20.4048 22.0439 20.2861 22.1151 20.1621C22.1347 20.1271 22.1485 20.0892 22.1558 20.0497C22.1706 19.9536 22.1483 19.8555 22.0936 19.7751C22.0389 19.6947 21.9557 19.6381 21.8608 19.6167ZM2.90625 20.3438C2.90917 20.4728 2.88628 20.601 2.83894 20.7211C2.79159 20.8411 2.72074 20.9505 2.63054 21.0428C2.54035 21.1351 2.43262 21.2084 2.31369 21.2585C2.19476 21.3086 2.06703 21.3344 1.93799 21.3344C1.80895 21.3344 1.6812 21.3087 1.56225 21.2587C1.4433 21.2087 1.33553 21.1354 1.24529 21.0431C1.15505 20.9509 1.08414 20.8416 1.03674 20.7215C0.989332 20.6015 0.966381 20.4732 0.969234 20.3442C0.974832 20.0911 1.0793 19.8503 1.26027 19.6732C1.44124 19.4961 1.68433 19.397 1.93751 19.3969C2.19068 19.3968 2.43383 19.4959 2.61488 19.6729C2.79594 19.8498 2.90053 20.0906 2.90625 20.3438ZM15.5 31C13.1492 31.0012 10.8292 30.4646 8.71778 29.4311C8.6863 29.4175 8.65578 29.403 8.62623 29.389C8.59669 29.3749 8.56617 29.3618 8.53662 29.3468C7.94977 29.0512 7.27421 28.9834 6.6403 29.1565L6.60155 29.1657L3.79023 29.9465C3.78006 29.9489 3.76795 29.9489 3.7573 29.9528C3.37456 30.0586 2.97027 30.0586 2.58753 29.9528C2.30862 29.8763 2.04753 29.7456 1.81915 29.5681C1.59078 29.3906 1.39961 29.1699 1.25657 28.9186C1.11353 28.6672 1.02141 28.3901 0.985492 28.1032C0.949571 27.8162 0.970546 27.525 1.04722 27.2461C1.054 27.219 1.05642 27.1986 1.06223 27.1744L1.88373 24.2188H1.9375C1.9375 23.9618 2.03956 23.7154 2.22124 23.5337C2.40292 23.3521 2.64932 23.25 2.90625 23.25C3.16318 23.25 3.40958 23.3521 3.59126 23.5337C3.77294 23.7154 3.875 23.9618 3.875 24.2188H3.89486L3.86337 24.3326C3.85175 24.4372 3.82463 24.5355 3.78152 24.6271L2.91206 27.7595C2.91206 27.7615 2.91545 27.7581 2.91545 27.7605C2.90335 27.8042 2.90272 27.8503 2.91364 27.8943C2.92455 27.9383 2.94664 27.9787 2.97777 28.0117C3.00889 28.0447 3.04799 28.0691 3.0913 28.0825C3.13461 28.096 3.18065 28.098 3.22497 28.0884C3.22739 28.0884 3.224 28.0933 3.22497 28.0933L6.10797 27.2921L6.12347 27.2902C7.21286 26.9891 8.37512 27.1014 9.3867 27.6055C9.39639 27.6103 9.40753 27.6118 9.41819 27.6152C11.3041 28.5675 13.3873 29.0632 15.5 29.0625C22.9909 29.0625 29.0625 22.9904 29.0625 15.5C29.0625 8.00963 22.9909 1.9375 15.5 1.9375C8.00963 1.9375 1.9375 8.00963 1.9375 15.5C1.9375 15.7843 1.95155 16.0662 1.96898 16.3452L1.92539 16.3491C1.93023 16.3879 1.9375 16.4276 1.9375 16.4688C1.9386 16.6057 1.91066 16.7413 1.8555 16.8667C1.80035 16.992 1.71925 17.1043 1.61754 17.196C1.51584 17.2877 1.39584 17.3568 1.26547 17.3987C1.1351 17.4407 0.997316 17.4545 0.861212 17.4393C0.725107 17.4241 0.593774 17.3802 0.475875 17.3105C0.357977 17.2408 0.256192 17.147 0.177236 17.0351C0.0982801 16.9232 0.0439473 16.7958 0.0178218 16.6614C-0.00830374 16.5269 -0.00562821 16.3885 0.0256719 16.2551C0.0105515 16.0037 0.00199133 15.7519 0 15.5C0 6.93964 6.93964 0 15.5 0C24.0604 0 31 6.93964 31 15.5C31 24.0604 24.0604 31 15.5 31Z" fill="#25D366"/>
</g>
<defs>
<clipPath id="clip0_230_425">
<rect width="31" height="31" fill="white"/>
</clipPath>
</defs>
</svg>
