<svg viewBox="0 0 93 23" fill="none" xmlns="http://www.w3.org/2000/svg">
<path d="M1.5 9.5459C0.671573 9.5459 0 10.2175 0 11.0459C0 11.8743 0.671573 12.5459 1.5 12.5459V11.0459V9.5459ZM92.5607 12.1066C93.1464 11.5208 93.1464 10.571 92.5607 9.98524L83.0147 0.439297C82.4289 -0.14649 81.4792 -0.14649 80.8934 0.439297C80.3076 1.02508 80.3076 1.97483 80.8934 2.56062L89.3787 11.0459L80.8934 19.5312C80.3076 20.117 80.3076 21.0667 80.8934 21.6525C81.4792 22.2383 82.4289 22.2383 83.0147 21.6525L92.5607 12.1066ZM1.5 11.0459V12.5459H91.5V11.0459V9.5459H1.5V11.0459Z" fill="#A0B0C8" fill-opacity="0.5"/>
</svg>
