<svg width="24" height="24" viewBox="0 0 24 24" fill="none" xmlns="http://www.w3.org/2000/svg">
<path d="M12.9955 11.0037L13.0025 2.10125C13.0025 1.83495 12.8967 1.57956 12.7084 1.39125C12.5201 1.20295 12.2647 1.09716 11.9984 1.09716C11.7321 1.09716 11.4767 1.20295 11.2884 1.39125C11.1001 1.57956 10.9943 1.83495 10.9943 2.10125L11.0014 11.0037L2.09894 10.9967C1.83264 10.9967 1.57725 11.1024 1.38894 11.2907C1.20064 11.4791 1.09485 11.7344 1.09485 12.0007C1.09485 12.267 1.20064 12.5224 1.38894 12.7107C1.57725 12.899 1.83264 13.0048 2.09894 13.0048L11.0014 12.9978L10.9943 21.9002C10.9938 22.0323 11.0194 22.1631 11.0697 22.2851C11.1199 22.4072 11.1939 22.5181 11.2872 22.6114C11.3806 22.7048 11.4915 22.7787 11.6135 22.829C11.7356 22.8793 11.8664 22.9049 11.9984 22.9043C12.1304 22.9049 12.2613 22.8793 12.3833 22.829C12.5054 22.7787 12.6163 22.7048 12.7096 22.6114C12.803 22.5181 12.8769 22.4072 12.9272 22.2851C12.9775 22.1631 13.0031 22.0323 13.0025 21.9002L12.9955 12.9978L21.8979 13.0048C22.0299 13.0054 22.1608 12.9798 22.2828 12.9295C22.4049 12.8792 22.5158 12.8053 22.6091 12.712C22.7025 12.6186 22.7764 12.5077 22.8267 12.3856C22.877 12.2636 22.9026 12.1328 22.902 12.0007C22.9026 11.8687 22.877 11.7379 22.8267 11.6159C22.7764 11.4938 22.7025 11.3829 22.6091 11.2895C22.5158 11.1962 22.4049 11.1223 22.2828 11.072C22.1608 11.0217 22.0299 10.9961 21.8979 10.9967L12.9955 11.0037Z" fill="#526179"/>
</svg>
