<svg width="1920" height="324" viewBox="0 0 1920 324" fill="none" xmlns="http://www.w3.org/2000/svg">
<mask id="path-1-inside-1_230_25" fill="white">
<path d="M-3 0H705C758.019 0 801 42.9807 801 96V148H-3V0Z"/>
</mask>
<path d="M-3 -8H705C762.438 -8 809 38.5624 809 96H793C793 47.3989 753.601 8 705 8H-3V-8ZM-3 8M801 148H-3H801M801 148M-3 148V0V148M705 -8C762.438 -8 809 38.5624 809 96V148H793V96C793 47.3989 753.601 8 705 8V-8Z" fill="#A0B0C8" fill-opacity="0.1" mask="url(#path-1-inside-1_230_25)"/>
<mask id="path-3-inside-2_230_25" fill="white">
<path d="M1935 324H937C857.471 324 793 259.529 793 180V148H1935V324Z"/>
</mask>
<path d="M1935 332H937C853.053 332 785 263.947 785 180H801C801 255.111 861.889 316 937 316H1935V332ZM1935 316M793 148H1935H793M793 148M1935 148V324V148M937 332C853.053 332 785 263.947 785 180V148H801V180C801 255.111 861.889 316 937 316V332Z" fill="#A0B0C8" fill-opacity="0.1" mask="url(#path-3-inside-2_230_25)"/>
</svg>
