<svg viewBox="0 0 82 63" fill="none" xmlns="http://www.w3.org/2000/svg">
<mask id="path-1-outside-1_255_74" maskUnits="userSpaceOnUse" x="-0.957031" y="-0.639648" width="83" height="64" fill="black">
<rect fill="white" x="-0.957031" y="-0.639648" width="83" height="64"/>
<path d="M10.7992 33.5204C10.7992 38.907 12.1859 43.3337 14.9592 46.8004C17.7326 50.267 21.1192 52.0004 25.1192 52.0004C29.1192 52.0004 32.5059 50.267 35.2792 46.8004C38.0526 43.3337 39.4392 38.907 39.4392 33.5204V29.2804C39.4392 23.8937 38.0526 19.467 35.2792 16.0003C32.5059 12.5337 29.1192 10.8003 25.1192 10.8003C21.1192 10.8003 17.7326 12.5337 14.9592 16.0003C12.1859 19.467 10.7992 23.8937 10.7992 29.2804V33.5204ZM1.99922 33.5204V29.2804C1.99922 21.387 4.23922 14.8803 8.71922 9.76035C13.1992 4.58702 18.6659 2.00035 25.1192 2.00035C31.5726 2.00035 37.0392 4.58702 41.5192 9.76035C45.9992 14.8803 48.2392 21.387 48.2392 29.2804V33.5204C48.2392 41.4137 45.9992 47.947 41.5192 53.1204C37.0392 58.2404 31.5726 60.8004 25.1192 60.8004C18.6659 60.8004 13.1992 58.2404 8.71922 53.1204C4.23922 47.947 1.99922 41.4137 1.99922 33.5204ZM79.7142 3.36035V59.3604H70.9142V13.4404L58.2742 22.8004L53.3142 15.7604L70.4342 3.36035H79.7142Z"/>
</mask>
<path d="M14.9592 46.8004L13.3975 48.0497V48.0497L14.9592 46.8004ZM35.2792 46.8004L36.841 48.0497V48.0497L35.2792 46.8004ZM35.2792 16.0003L36.841 14.751H36.841L35.2792 16.0003ZM14.9592 16.0003L13.3975 14.751V14.751L14.9592 16.0003ZM8.71922 9.76035L10.2244 11.0774L10.2311 11.0696L8.71922 9.76035ZM41.5192 9.76035L40.0073 11.0696L40.0141 11.0774L41.5192 9.76035ZM41.5192 53.1203L43.0244 54.4374L43.0311 54.4296L41.5192 53.1203ZM8.71922 53.1203L7.20731 54.4296L7.21407 54.4374L8.71922 53.1203ZM10.7992 33.5204H8.79922C8.79922 39.2611 10.2837 44.1575 13.3975 48.0497L14.9592 46.8004L16.521 45.551C14.0881 42.5099 12.7992 38.553 12.7992 33.5204H10.7992ZM14.9592 46.8004L13.3975 48.0497C16.5029 51.9315 20.4395 54.0004 25.1192 54.0004V52.0004V50.0004C21.7989 50.0004 18.9622 48.6025 16.521 45.551L14.9592 46.8004ZM25.1192 52.0004V54.0004C29.7989 54.0004 33.7355 51.9315 36.841 48.0497L35.2792 46.8004L33.7175 45.551C31.2762 48.6025 28.4396 50.0004 25.1192 50.0004V52.0004ZM35.2792 46.8004L36.841 48.0497C39.9548 44.1575 41.4392 39.2611 41.4392 33.5204H39.4392H37.4392C37.4392 38.553 36.1503 42.5099 33.7175 45.551L35.2792 46.8004ZM39.4392 33.5204H41.4392V29.2803H39.4392H37.4392V33.5204H39.4392ZM39.4392 29.2803H41.4392C41.4392 23.5396 39.9548 18.6432 36.841 14.751L35.2792 16.0003L33.7175 17.2497C36.1503 20.2908 37.4392 24.2477 37.4392 29.2803H39.4392ZM35.2792 16.0003L36.841 14.751C33.7355 10.8692 29.7989 8.80035 25.1192 8.80035V10.8003V12.8003C28.4396 12.8003 31.2762 14.1982 33.7175 17.2497L35.2792 16.0003ZM25.1192 10.8003V8.80035C20.4395 8.80035 16.5029 10.8692 13.3975 14.751L14.9592 16.0003L16.521 17.2497C18.9622 14.1982 21.7989 12.8003 25.1192 12.8003V10.8003ZM14.9592 16.0003L13.3975 14.751C10.2837 18.6432 8.79922 23.5396 8.79922 29.2803H10.7992H12.7992C12.7992 24.2477 14.0881 20.2908 16.521 17.2497L14.9592 16.0003ZM10.7992 29.2803H8.79922V33.5204H10.7992H12.7992V29.2803H10.7992ZM1.99922 33.5204H3.99922V29.2803H1.99922H-0.000781238V33.5204H1.99922ZM1.99922 29.2803H3.99922C3.99922 21.7892 6.1137 15.7753 10.2244 11.0774L8.71922 9.76035L7.21407 8.44334C2.36474 13.9854 -0.000781238 20.9849 -0.000781238 29.2803H1.99922ZM8.71922 9.76035L10.2311 11.0696C14.3573 6.30482 19.2849 4.00035 25.1192 4.00035V2.00035V0.000350952C18.0469 0.000350952 12.0411 2.86921 7.20733 8.45108L8.71922 9.76035ZM25.1192 2.00035V4.00035C30.9535 4.00035 35.8811 6.30482 40.0073 11.0696L41.5192 9.76035L43.0311 8.45108C38.1973 2.86921 32.1916 0.000350952 25.1192 0.000350952V2.00035ZM41.5192 9.76035L40.0141 11.0774C44.1247 15.7753 46.2392 21.7892 46.2392 29.2803H48.2392H50.2392C50.2392 20.9849 47.8737 13.9854 43.0244 8.44334L41.5192 9.76035ZM48.2392 29.2803H46.2392V33.5204H48.2392H50.2392V29.2803H48.2392ZM48.2392 33.5204H46.2392C46.2392 41.011 44.1248 47.0564 40.0073 51.8111L41.5192 53.1203L43.0311 54.4296C47.8736 48.8377 50.2392 41.8164 50.2392 33.5204H48.2392ZM41.5192 53.1203L40.0141 51.8033C35.8904 56.5161 30.9612 58.8004 25.1192 58.8004V60.8004V62.8004C32.1839 62.8004 38.188 59.9646 43.0244 54.4374L41.5192 53.1203ZM25.1192 60.8004V58.8004C19.2772 58.8004 14.348 56.5161 10.2244 51.8033L8.71922 53.1203L7.21407 54.4374C12.0504 59.9646 18.0545 62.8004 25.1192 62.8004V60.8004ZM8.71922 53.1203L10.2311 51.8111C6.11363 47.0564 3.99922 41.011 3.99922 33.5204H1.99922H-0.000781238C-0.000781238 41.8164 2.3648 48.8377 7.20733 54.4296L8.71922 53.1203ZM79.7142 3.36035H81.7142V1.36035H79.7142V3.36035ZM79.7142 59.3604V61.3604H81.7142V59.3604H79.7142ZM70.9142 59.3604H68.9142V61.3604H70.9142V59.3604ZM70.9142 13.4404H72.9142V9.47068L69.724 11.8331L70.9142 13.4404ZM58.2742 22.8004L56.6393 23.9523L57.8187 25.6263L59.4644 24.4076L58.2742 22.8004ZM53.3142 15.7603L52.141 14.1406L50.5423 15.2985L51.6793 16.9123L53.3142 15.7603ZM70.4342 3.36035V1.36035H69.786L69.261 1.74059L70.4342 3.36035ZM79.7142 3.36035H77.7142V59.3604H79.7142H81.7142V3.36035H79.7142ZM79.7142 59.3604V57.3604H70.9142V59.3604V61.3604H79.7142V59.3604ZM70.9142 59.3604H72.9142V13.4404H70.9142H68.9142V59.3604H70.9142ZM70.9142 13.4404L69.724 11.8331L57.084 21.1931L58.2742 22.8004L59.4644 24.4076L72.1044 15.0476L70.9142 13.4404ZM58.2742 22.8004L59.9092 21.6484L54.9492 14.6084L53.3142 15.7603L51.6793 16.9123L56.6393 23.9523L58.2742 22.8004ZM53.3142 15.7603L54.4874 17.3801L71.6074 4.98011L70.4342 3.36035L69.261 1.74059L52.141 14.1406L53.3142 15.7603ZM70.4342 3.36035V5.36035H79.7142V3.36035V1.36035H70.4342V3.36035Z" fill="#2F394D" mask="url(#path-1-outside-1_255_74)"/>
</svg>
