<svg viewBox="0 0 96 63" fill="none" xmlns="http://www.w3.org/2000/svg">
<mask id="path-1-outside-1_255_82" maskUnits="userSpaceOnUse" x="-0.222656" y="-0.639648" width="97" height="64" fill="black">
<rect fill="white" x="-0.222656" y="-0.639648" width="97" height="64"/>
<path d="M10.7992 33.5204C10.7992 38.907 12.1859 43.3337 14.9592 46.8004C17.7326 50.267 21.1192 52.0004 25.1192 52.0004C29.1192 52.0004 32.5059 50.267 35.2792 46.8004C38.0526 43.3337 39.4392 38.907 39.4392 33.5204V29.2804C39.4392 23.8937 38.0526 19.467 35.2792 16.0003C32.5059 12.5337 29.1192 10.8003 25.1192 10.8003C21.1192 10.8003 17.7326 12.5337 14.9592 16.0003C12.1859 19.467 10.7992 23.8937 10.7992 29.2804V33.5204ZM1.99922 33.5204V29.2804C1.99922 21.387 4.23922 14.8803 8.71922 9.76035C13.1992 4.58702 18.6659 2.00035 25.1192 2.00035C31.5726 2.00035 37.0392 4.58702 41.5192 9.76035C45.9992 14.8803 48.2392 21.387 48.2392 29.2804V33.5204C48.2392 41.4137 45.9992 47.947 41.5192 53.1204C37.0392 58.2404 31.5726 60.8004 25.1192 60.8004C18.6659 60.8004 13.1992 58.2404 8.71922 53.1204C4.23922 47.947 1.99922 41.4137 1.99922 33.5204ZM93.9542 21.6003C93.9542 27.627 89.6342 33.7603 80.9942 40.0004L66.4342 50.8004H93.9542V59.3604H54.5942V49.2004L73.9542 35.0403C75.4476 33.9204 76.5142 33.147 77.1542 32.7204C77.7942 32.2404 78.7542 31.467 80.0342 30.4004C81.3142 29.2804 82.2209 28.347 82.7542 27.6004C83.3409 26.8003 83.8742 25.867 84.3542 24.8004C84.8876 23.7337 85.1542 22.667 85.1542 21.6003C85.1542 18.6137 84.0876 16.1604 81.9542 14.2404C79.8209 12.267 77.2342 11.2804 74.1942 11.2804C68.3809 11.2804 64.4876 14.5604 62.5142 21.1204L53.8742 18.5603C55.3676 13.8137 57.7942 9.94702 61.1542 6.96035C64.5676 3.97368 68.9142 2.48035 74.1942 2.48035C79.6876 2.48035 84.3542 4.29368 88.1942 7.92035C92.0342 11.547 93.9542 16.107 93.9542 21.6003Z"/>
</mask>
<path d="M14.9592 46.8004L13.3975 48.0497V48.0497L14.9592 46.8004ZM35.2792 46.8004L36.841 48.0497V48.0497L35.2792 46.8004ZM35.2792 16.0003L36.841 14.751H36.841L35.2792 16.0003ZM14.9592 16.0003L13.3975 14.751V14.751L14.9592 16.0003ZM8.71922 9.76035L10.2244 11.0774L10.2311 11.0696L8.71922 9.76035ZM41.5192 9.76035L40.0073 11.0696L40.0141 11.0774L41.5192 9.76035ZM41.5192 53.1203L43.0244 54.4374L43.0311 54.4296L41.5192 53.1203ZM8.71922 53.1203L7.20731 54.4296L7.21407 54.4374L8.71922 53.1203ZM10.7992 33.5204H8.79922C8.79922 39.2611 10.2837 44.1575 13.3975 48.0497L14.9592 46.8004L16.521 45.551C14.0881 42.5099 12.7992 38.553 12.7992 33.5204H10.7992ZM14.9592 46.8004L13.3975 48.0497C16.5029 51.9315 20.4395 54.0004 25.1192 54.0004V52.0004V50.0004C21.7989 50.0004 18.9622 48.6025 16.521 45.551L14.9592 46.8004ZM25.1192 52.0004V54.0004C29.7989 54.0004 33.7355 51.9315 36.841 48.0497L35.2792 46.8004L33.7175 45.551C31.2762 48.6025 28.4396 50.0004 25.1192 50.0004V52.0004ZM35.2792 46.8004L36.841 48.0497C39.9548 44.1575 41.4392 39.2611 41.4392 33.5204H39.4392H37.4392C37.4392 38.553 36.1503 42.5099 33.7175 45.551L35.2792 46.8004ZM39.4392 33.5204H41.4392V29.2803H39.4392H37.4392V33.5204H39.4392ZM39.4392 29.2803H41.4392C41.4392 23.5396 39.9548 18.6432 36.841 14.751L35.2792 16.0003L33.7175 17.2497C36.1503 20.2908 37.4392 24.2477 37.4392 29.2803H39.4392ZM35.2792 16.0003L36.841 14.751C33.7355 10.8692 29.7989 8.80035 25.1192 8.80035V10.8003V12.8003C28.4396 12.8003 31.2762 14.1982 33.7175 17.2497L35.2792 16.0003ZM25.1192 10.8003V8.80035C20.4395 8.80035 16.5029 10.8692 13.3975 14.751L14.9592 16.0003L16.521 17.2497C18.9622 14.1982 21.7989 12.8003 25.1192 12.8003V10.8003ZM14.9592 16.0003L13.3975 14.751C10.2837 18.6432 8.79922 23.5396 8.79922 29.2803H10.7992H12.7992C12.7992 24.2477 14.0881 20.2908 16.521 17.2497L14.9592 16.0003ZM10.7992 29.2803H8.79922V33.5204H10.7992H12.7992V29.2803H10.7992ZM1.99922 33.5204H3.99922V29.2803H1.99922H-0.000781298V33.5204H1.99922ZM1.99922 29.2803H3.99922C3.99922 21.7892 6.1137 15.7753 10.2244 11.0774L8.71922 9.76035L7.21407 8.44334C2.36474 13.9854 -0.000781298 20.9849 -0.000781298 29.2803H1.99922ZM8.71922 9.76035L10.2311 11.0696C14.3573 6.30482 19.2849 4.00035 25.1192 4.00035V2.00035V0.000350952C18.0469 0.000350952 12.0411 2.86921 7.20733 8.45108L8.71922 9.76035ZM25.1192 2.00035V4.00035C30.9535 4.00035 35.8811 6.30482 40.0073 11.0696L41.5192 9.76035L43.0311 8.45108C38.1973 2.86921 32.1916 0.000350952 25.1192 0.000350952V2.00035ZM41.5192 9.76035L40.0141 11.0774C44.1247 15.7753 46.2392 21.7892 46.2392 29.2803H48.2392H50.2392C50.2392 20.9849 47.8737 13.9854 43.0244 8.44334L41.5192 9.76035ZM48.2392 29.2803H46.2392V33.5204H48.2392H50.2392V29.2803H48.2392ZM48.2392 33.5204H46.2392C46.2392 41.011 44.1248 47.0564 40.0073 51.8111L41.5192 53.1203L43.0311 54.4296C47.8736 48.8377 50.2392 41.8164 50.2392 33.5204H48.2392ZM41.5192 53.1203L40.0141 51.8033C35.8904 56.5161 30.9612 58.8004 25.1192 58.8004V60.8004V62.8004C32.1839 62.8004 38.188 59.9646 43.0244 54.4374L41.5192 53.1203ZM25.1192 60.8004V58.8004C19.2772 58.8004 14.348 56.5161 10.2244 51.8033L8.71922 53.1203L7.21407 54.4374C12.0504 59.9646 18.0545 62.8004 25.1192 62.8004V60.8004ZM8.71922 53.1203L10.2311 51.8111C6.11363 47.0564 3.99922 41.011 3.99922 33.5204H1.99922H-0.000781298C-0.000781298 41.8164 2.3648 48.8377 7.20733 54.4296L8.71922 53.1203ZM80.9942 40.0004L79.8232 38.379L79.8129 38.3864L79.8027 38.394L80.9942 40.0004ZM66.4342 50.8004L65.2427 49.194L60.3808 52.8004H66.4342V50.8004ZM93.9542 50.8004H95.9542V48.8004H93.9542V50.8004ZM93.9542 59.3604V61.3604H95.9542V59.3604H93.9542ZM54.5942 59.3604H52.5942V61.3604H54.5942V59.3604ZM54.5942 49.2004L53.4135 47.5861L52.5942 48.1853V49.2004H54.5942ZM73.9542 35.0403L75.1349 36.6546L75.1446 36.6476L75.1542 36.6404L73.9542 35.0403ZM77.1542 32.7204L78.2636 34.3845L78.3098 34.3537L78.3542 34.3204L77.1542 32.7204ZM80.0342 30.4004L81.3146 31.9368L81.3331 31.9214L81.3512 31.9055L80.0342 30.4004ZM82.7542 27.6003L81.1414 26.4176L81.134 26.4277L81.1268 26.4379L82.7542 27.6003ZM84.3542 24.8004L82.5654 23.9059L82.5471 23.9424L82.5304 23.9796L84.3542 24.8004ZM81.9542 14.2403L80.5961 15.7085L80.6061 15.7178L80.6163 15.7269L81.9542 14.2403ZM62.5142 21.1203L61.946 23.0379L63.8557 23.6038L64.4294 21.6965L62.5142 21.1203ZM53.8742 18.5603L51.9664 17.9601L51.3561 19.9002L53.306 20.4779L53.8742 18.5603ZM61.1542 6.96035L59.8372 5.4552L59.8313 5.46034L59.8255 5.46553L61.1542 6.96035ZM88.1942 7.92035L86.821 9.37438V9.37438L88.1942 7.92035ZM93.9542 21.6003H91.9542C91.9542 26.6221 88.3309 32.2346 79.8232 38.379L80.9942 40.0004L82.1652 41.6217C90.9375 35.2861 95.9542 28.632 95.9542 21.6003H93.9542ZM80.9942 40.0004L79.8027 38.394L65.2427 49.194L66.4342 50.8004L67.6257 52.4067L82.1857 41.6067L80.9942 40.0004ZM66.4342 50.8004V52.8004H93.9542V50.8004V48.8004H66.4342V50.8004ZM93.9542 50.8004H91.9542V59.3604H93.9542H95.9542V50.8004H93.9542ZM93.9542 59.3604V57.3604H54.5942V59.3604V61.3604H93.9542V59.3604ZM54.5942 59.3604H56.5942V49.2004H54.5942H52.5942V59.3604H54.5942ZM54.5942 49.2004L55.7749 50.8146L75.1349 36.6546L73.9542 35.0403L72.7735 33.4261L53.4135 47.5861L54.5942 49.2004ZM73.9542 35.0403L75.1542 36.6404C76.6478 35.5202 77.6747 34.7771 78.2636 34.3845L77.1542 32.7204L76.0448 31.0562C75.3537 31.517 74.2474 32.3205 72.7542 33.4403L73.9542 35.0403ZM77.1542 32.7204L78.3542 34.3204C79.0374 33.808 80.03 33.0073 81.3146 31.9368L80.0342 30.4004L78.7539 28.8639C77.4784 29.9268 76.5511 30.6727 75.9542 31.1203L77.1542 32.7204ZM80.0342 30.4004L81.3512 31.9055C82.6668 30.7544 83.7123 29.7 84.3817 28.7628L82.7542 27.6003L81.1268 26.4379C80.7295 26.9941 79.9616 27.8063 78.7172 28.8952L80.0342 30.4004ZM82.7542 27.6003L84.367 28.7831C85.0497 27.8522 85.6505 26.7934 86.1781 25.6211L84.3542 24.8004L82.5304 23.9796C82.0979 24.9406 81.6321 25.7485 81.1414 26.4176L82.7542 27.6003ZM84.3542 24.8004L86.1431 25.6948C86.7987 24.3835 87.1542 23.0125 87.1542 21.6003H85.1542H83.1542C83.1542 22.3215 82.9764 23.0838 82.5654 23.9059L84.3542 24.8004ZM85.1542 21.6003H87.1542C87.1542 18.0728 85.866 15.0702 83.2921 12.7538L81.9542 14.2403L80.6163 15.7269C82.3092 17.2505 83.1542 19.1545 83.1542 21.6003H85.1542ZM81.9542 14.2403L83.3123 12.7722C80.791 10.44 77.7122 9.28035 74.1942 9.28035V11.2803V13.2803C76.7563 13.2803 78.8508 14.0941 80.5961 15.7085L81.9542 14.2403ZM74.1942 11.2803V9.28035C70.8869 9.28035 67.9837 10.2242 65.6256 12.2108C63.2956 14.1738 61.6598 17.0176 60.599 20.5442L62.5142 21.1203L64.4294 21.6965C65.3419 18.6631 66.6395 16.5869 68.2028 15.2699C69.7381 13.9765 71.6882 13.2803 74.1942 13.2803V11.2803ZM62.5142 21.1203L63.0824 19.2028L54.4424 16.6427L53.8742 18.5603L53.306 20.4779L61.946 23.0379L62.5142 21.1203ZM53.8742 18.5603L55.782 19.1606C57.1787 14.721 59.4216 11.1764 62.4829 8.45517L61.1542 6.96035L59.8255 5.46553C56.1668 8.71766 53.5564 12.9063 51.9664 17.9601L53.8742 18.5603ZM61.1542 6.96035L62.4712 8.4655C65.4612 5.84926 69.3144 4.48035 74.1942 4.48035V2.48035V0.48035C68.514 0.48035 63.6739 2.09811 59.8372 5.4552L61.1542 6.96035ZM74.1942 2.48035V4.48035C79.1995 4.48035 83.3683 6.11357 86.821 9.37438L88.1942 7.92035L89.5675 6.46632C85.3401 2.4738 80.1756 0.48035 74.1942 0.48035V2.48035ZM88.1942 7.92035L86.821 9.37438C90.2432 12.6065 91.9542 16.6325 91.9542 21.6003H93.9542H95.9542C95.9542 15.5816 93.8252 10.4875 89.5675 6.46632L88.1942 7.92035Z" fill="#2F394D" mask="url(#path-1-outside-1_255_82)"/>
</svg>
