<svg viewBox="0 0 96 63" fill="none" xmlns="http://www.w3.org/2000/svg">
<mask id="path-1-outside-1_255_90" maskUnits="userSpaceOnUse" x="-0.222656" y="-0.639648" width="97" height="64" fill="black">
<rect fill="white" x="-0.222656" y="-0.639648" width="97" height="64"/>
<path d="M10.7992 33.5204C10.7992 38.907 12.1859 43.3337 14.9592 46.8004C17.7326 50.267 21.1192 52.0004 25.1192 52.0004C29.1192 52.0004 32.5059 50.267 35.2792 46.8004C38.0526 43.3337 39.4392 38.907 39.4392 33.5204V29.2804C39.4392 23.8937 38.0526 19.467 35.2792 16.0003C32.5059 12.5337 29.1192 10.8003 25.1192 10.8003C21.1192 10.8003 17.7326 12.5337 14.9592 16.0003C12.1859 19.467 10.7992 23.8937 10.7992 29.2804V33.5204ZM1.99922 33.5204V29.2804C1.99922 21.387 4.23922 14.8803 8.71922 9.76035C13.1992 4.58702 18.6659 2.00035 25.1192 2.00035C31.5726 2.00035 37.0392 4.58702 41.5192 9.76035C45.9992 14.8803 48.2392 21.387 48.2392 29.2804V33.5204C48.2392 41.4137 45.9992 47.947 41.5192 53.1204C37.0392 58.2404 31.5726 60.8004 25.1192 60.8004C18.6659 60.8004 13.1992 58.2404 8.71922 53.1204C4.23922 47.947 1.99922 41.4137 1.99922 33.5204ZM79.7942 25.3604C84.0609 26.0004 87.4742 27.8404 90.0342 30.8804C92.6476 33.9204 93.9542 37.7337 93.9542 42.3204C93.9542 47.6004 92.0876 51.9204 88.3542 55.2804C84.6209 58.587 79.8209 60.2404 73.9542 60.2404C68.9942 60.2404 64.7276 58.8804 61.1542 56.1604C57.5809 53.4404 55.1542 49.787 53.8742 45.2004L62.1142 42.4004C62.7542 45.227 64.1142 47.4404 66.1942 49.0404C68.2742 50.6404 70.8342 51.4404 73.8742 51.4404C77.1809 51.4404 79.8742 50.587 81.9542 48.8804C84.0876 47.1737 85.1542 44.9604 85.1542 42.2404C85.1542 38.7737 83.8742 36.0537 81.3142 34.0804C78.7542 32.0537 75.1809 31.0404 70.5942 31.0404L68.5942 24.8803L83.7942 11.9203H54.5942V3.36035H93.9542V13.5204L79.7942 25.3604Z"/>
</mask>
<path d="M14.9592 46.8004L13.3975 48.0497V48.0497L14.9592 46.8004ZM35.2792 46.8004L36.841 48.0497V48.0497L35.2792 46.8004ZM35.2792 16.0003L36.841 14.751H36.841L35.2792 16.0003ZM14.9592 16.0003L13.3975 14.751V14.751L14.9592 16.0003ZM8.71922 9.76035L10.2244 11.0774L10.2311 11.0696L8.71922 9.76035ZM41.5192 9.76035L40.0073 11.0696L40.0141 11.0774L41.5192 9.76035ZM41.5192 53.1203L43.0244 54.4374L43.0311 54.4296L41.5192 53.1203ZM8.71922 53.1203L7.20731 54.4296L7.21407 54.4374L8.71922 53.1203ZM10.7992 33.5204H8.79922C8.79922 39.2611 10.2837 44.1575 13.3975 48.0497L14.9592 46.8004L16.521 45.551C14.0881 42.5099 12.7992 38.553 12.7992 33.5204H10.7992ZM14.9592 46.8004L13.3975 48.0497C16.5029 51.9315 20.4395 54.0004 25.1192 54.0004V52.0004V50.0004C21.7989 50.0004 18.9622 48.6025 16.521 45.551L14.9592 46.8004ZM25.1192 52.0004V54.0004C29.7989 54.0004 33.7355 51.9315 36.841 48.0497L35.2792 46.8004L33.7175 45.551C31.2762 48.6025 28.4396 50.0004 25.1192 50.0004V52.0004ZM35.2792 46.8004L36.841 48.0497C39.9548 44.1575 41.4392 39.2611 41.4392 33.5204H39.4392H37.4392C37.4392 38.553 36.1503 42.5099 33.7175 45.551L35.2792 46.8004ZM39.4392 33.5204H41.4392V29.2803H39.4392H37.4392V33.5204H39.4392ZM39.4392 29.2803H41.4392C41.4392 23.5396 39.9548 18.6432 36.841 14.751L35.2792 16.0003L33.7175 17.2497C36.1503 20.2908 37.4392 24.2477 37.4392 29.2803H39.4392ZM35.2792 16.0003L36.841 14.751C33.7355 10.8692 29.7989 8.80035 25.1192 8.80035V10.8003V12.8003C28.4396 12.8003 31.2762 14.1982 33.7175 17.2497L35.2792 16.0003ZM25.1192 10.8003V8.80035C20.4395 8.80035 16.5029 10.8692 13.3975 14.751L14.9592 16.0003L16.521 17.2497C18.9622 14.1982 21.7989 12.8003 25.1192 12.8003V10.8003ZM14.9592 16.0003L13.3975 14.751C10.2837 18.6432 8.79922 23.5396 8.79922 29.2803H10.7992H12.7992C12.7992 24.2477 14.0881 20.2908 16.521 17.2497L14.9592 16.0003ZM10.7992 29.2803H8.79922V33.5204H10.7992H12.7992V29.2803H10.7992ZM1.99922 33.5204H3.99922V29.2803H1.99922H-0.000781298V33.5204H1.99922ZM1.99922 29.2803H3.99922C3.99922 21.7892 6.1137 15.7753 10.2244 11.0774L8.71922 9.76035L7.21407 8.44334C2.36474 13.9854 -0.000781298 20.9849 -0.000781298 29.2803H1.99922ZM8.71922 9.76035L10.2311 11.0696C14.3573 6.30482 19.2849 4.00035 25.1192 4.00035V2.00035V0.000350952C18.0469 0.000350952 12.0411 2.86921 7.20733 8.45108L8.71922 9.76035ZM25.1192 2.00035V4.00035C30.9535 4.00035 35.8811 6.30482 40.0073 11.0696L41.5192 9.76035L43.0311 8.45108C38.1973 2.86921 32.1916 0.000350952 25.1192 0.000350952V2.00035ZM41.5192 9.76035L40.0141 11.0774C44.1247 15.7753 46.2392 21.7892 46.2392 29.2803H48.2392H50.2392C50.2392 20.9849 47.8737 13.9854 43.0244 8.44334L41.5192 9.76035ZM48.2392 29.2803H46.2392V33.5204H48.2392H50.2392V29.2803H48.2392ZM48.2392 33.5204H46.2392C46.2392 41.011 44.1248 47.0564 40.0073 51.8111L41.5192 53.1203L43.0311 54.4296C47.8736 48.8377 50.2392 41.8164 50.2392 33.5204H48.2392ZM41.5192 53.1203L40.0141 51.8033C35.8904 56.5161 30.9612 58.8004 25.1192 58.8004V60.8004V62.8004C32.1839 62.8004 38.188 59.9646 43.0244 54.4374L41.5192 53.1203ZM25.1192 60.8004V58.8004C19.2772 58.8004 14.348 56.5161 10.2244 51.8033L8.71922 53.1203L7.21407 54.4374C12.0504 59.9646 18.0545 62.8004 25.1192 62.8004V60.8004ZM8.71922 53.1203L10.2311 51.8111C6.11363 47.0564 3.99922 41.011 3.99922 33.5204H1.99922H-0.000781298C-0.000781298 41.8164 2.3648 48.8377 7.20733 54.4296L8.71922 53.1203ZM79.7942 25.3604L78.5113 23.826L75.0998 26.6786L79.4975 27.3382L79.7942 25.3604ZM90.0342 30.8804L88.5044 32.1686L88.511 32.1764L88.5176 32.1841L90.0342 30.8804ZM88.3542 55.2803L89.6803 56.7775L89.6862 56.7723L89.6922 56.7669L88.3542 55.2803ZM61.1542 56.1604L59.9428 57.7518L61.1542 56.1604ZM53.8742 45.2004L53.2307 43.3067L51.4392 43.9155L51.9478 45.7379L53.8742 45.2004ZM62.1142 42.4004L64.0648 41.9587L63.5742 39.7919L61.4707 40.5067L62.1142 42.4004ZM66.1942 49.0404L64.9748 50.6256L66.1942 49.0404ZM81.9542 48.8803L80.7048 47.3186L80.6952 47.3263L80.6856 47.3342L81.9542 48.8803ZM81.3142 34.0804L80.0728 35.6484L80.083 35.6565L80.0932 35.6644L81.3142 34.0804ZM70.5942 31.0404L68.692 31.658L69.1408 33.0404H70.5942V31.0404ZM68.5942 24.8803L67.2966 23.3584L66.279 24.2261L66.692 25.498L68.5942 24.8803ZM83.7942 11.9203L85.0918 13.4422L89.2225 9.92035H83.7942V11.9203ZM54.5942 11.9203H52.5942V13.9203H54.5942V11.9203ZM54.5942 3.36035V1.36035H52.5942V3.36035H54.5942ZM93.9542 3.36035H95.9542V1.36035H93.9542V3.36035ZM93.9542 13.5204L95.2371 15.0547L95.9542 14.4551V13.5204H93.9542ZM79.7942 25.3604L79.4975 27.3382C83.3275 27.9127 86.2857 29.5339 88.5044 32.1686L90.0342 30.8804L91.564 29.5921C88.6627 26.1468 84.7943 24.088 80.0909 23.3825L79.7942 25.3604ZM90.0342 30.8804L88.5176 32.1841C90.7744 34.8094 91.9542 38.1389 91.9542 42.3204H93.9542H95.9542C95.9542 37.3285 94.5207 33.0313 91.5509 29.5766L90.0342 30.8804ZM93.9542 42.3204H91.9542C91.9542 47.0663 90.3044 50.8345 87.0163 53.7938L88.3542 55.2803L89.6922 56.7669C93.8707 53.0062 95.9542 48.1344 95.9542 42.3204H93.9542ZM88.3542 55.2803L87.0282 53.7832C83.7235 56.7102 79.4234 58.2404 73.9542 58.2404V60.2404V62.2404C80.2184 62.2404 85.5183 60.4639 89.6803 56.7775L88.3542 55.2803ZM73.9542 60.2404V58.2404C69.3835 58.2404 65.5541 56.9961 62.3656 54.5689L61.1542 56.1604L59.9428 57.7518C63.901 60.7647 68.6049 62.2404 73.9542 62.2404V60.2404ZM61.1542 56.1604L62.3656 54.5689C59.1608 52.1294 56.971 48.8567 55.8006 44.6628L53.8742 45.2004L51.9478 45.7379C53.3374 50.7174 56.001 54.7513 59.9428 57.7518L61.1542 56.1604ZM53.8742 45.2004L54.5177 47.094L62.7577 44.294L62.1142 42.4004L61.4707 40.5067L53.2307 43.3067L53.8742 45.2004ZM62.1142 42.4004L60.1636 42.842C60.8951 46.0727 62.486 48.7111 64.9748 50.6256L66.1942 49.0404L67.4136 47.4551C65.7425 46.1696 64.6134 44.3813 64.0648 41.9587L62.1142 42.4004ZM66.1942 49.0404L64.9748 50.6256C67.4581 52.5358 70.466 53.4403 73.8742 53.4403V51.4403V49.4404C71.2024 49.4404 69.0903 48.7449 67.4136 47.4551L66.1942 49.0404ZM73.8742 51.4403V53.4403C77.5342 53.4403 80.7089 52.4892 83.2229 50.4265L81.9542 48.8803L80.6856 47.3342C79.0395 48.6848 76.8276 49.4404 73.8742 49.4404V51.4403ZM81.9542 48.8803L83.2036 50.4421C85.8089 48.3578 87.1542 45.571 87.1542 42.2403H85.1542H83.1542C83.1542 44.3497 82.3662 45.9895 80.7048 47.3186L81.9542 48.8803ZM85.1542 42.2403H87.1542C87.1542 38.2055 85.6263 34.879 82.5352 32.4963L81.3142 34.0804L80.0932 35.6644C82.1222 37.2284 83.1542 39.3419 83.1542 42.2403H85.1542ZM81.3142 34.0804L82.5556 32.5123C79.5238 30.112 75.4526 29.0404 70.5942 29.0404V31.0404V33.0404C74.9092 33.0404 77.9847 33.9953 80.0728 35.6484L81.3142 34.0804ZM70.5942 31.0404L72.4965 30.4227L70.4965 24.2627L68.5942 24.8803L66.692 25.498L68.692 31.658L70.5942 31.0404ZM68.5942 24.8803L69.8918 26.4022L85.0918 13.4422L83.7942 11.9203L82.4966 10.3984L67.2966 23.3584L68.5942 24.8803ZM83.7942 11.9203V9.92035H54.5942V11.9203V13.9203H83.7942V11.9203ZM54.5942 11.9203H56.5942V3.36035H54.5942H52.5942V11.9203H54.5942ZM54.5942 3.36035V5.36035H93.9542V3.36035V1.36035H54.5942V3.36035ZM93.9542 3.36035H91.9542V13.5204H93.9542H95.9542V3.36035H93.9542ZM93.9542 13.5204L92.6713 11.986L78.5113 23.826L79.7942 25.3604L81.0771 26.8947L95.2371 15.0547L93.9542 13.5204Z" fill="#2F394D" mask="url(#path-1-outside-1_255_90)"/>
</svg>
