<svg viewBox="0 0 96 63" fill="none" xmlns="http://www.w3.org/2000/svg">
<mask id="path-1-outside-1_255_106" maskUnits="userSpaceOnUse" x="-0.222656" y="-0.639648" width="97" height="64" fill="black">
<rect fill="white" x="-0.222656" y="-0.639648" width="97" height="64"/>
<path d="M10.7992 33.5204C10.7992 38.907 12.1859 43.3337 14.9592 46.8004C17.7326 50.267 21.1192 52.0004 25.1192 52.0004C29.1192 52.0004 32.5059 50.267 35.2792 46.8004C38.0526 43.3337 39.4392 38.907 39.4392 33.5204V29.2804C39.4392 23.8937 38.0526 19.467 35.2792 16.0003C32.5059 12.5337 29.1192 10.8003 25.1192 10.8003C21.1192 10.8003 17.7326 12.5337 14.9592 16.0003C12.1859 19.467 10.7992 23.8937 10.7992 29.2804V33.5204ZM1.99922 33.5204V29.2804C1.99922 21.387 4.23922 14.8803 8.71922 9.76035C13.1992 4.58702 18.6659 2.00035 25.1192 2.00035C31.5726 2.00035 37.0392 4.58702 41.5192 9.76035C45.9992 14.8803 48.2392 21.387 48.2392 29.2804V33.5204C48.2392 41.4137 45.9992 47.947 41.5192 53.1204C37.0392 58.2404 31.5726 60.8004 25.1192 60.8004C18.6659 60.8004 13.1992 58.2404 8.71922 53.1204C4.23922 47.947 1.99922 41.4137 1.99922 33.5204ZM63.4742 26.0003C65.3409 24.2937 67.4476 22.9603 69.7942 22.0004C72.1942 21.0404 74.5676 20.5604 76.9142 20.5604C81.6609 20.5604 85.6876 22.4804 88.9942 26.3204C92.3009 30.1604 93.9542 34.8537 93.9542 40.4004C93.9542 46.2137 92.0609 50.987 88.2742 54.7204C84.4876 58.4004 79.6609 60.2404 73.7942 60.2404C68.9409 60.2404 64.7276 58.9337 61.1542 56.3204C57.6342 53.707 55.2076 50.1337 53.8742 45.6004L62.5142 42.8004C63.1542 45.5204 64.4609 47.6537 66.4342 49.2004C68.4076 50.6937 70.8076 51.4404 73.6342 51.4404C77.0476 51.4404 79.8209 50.4004 81.9542 48.3204C84.0876 46.2404 85.1542 43.5204 85.1542 40.1604C85.1542 36.8537 84.1676 34.1337 82.1942 32.0004C80.2209 29.867 77.7142 28.8003 74.6742 28.8003C72.7009 28.8003 70.7276 29.2803 68.7542 30.2403C66.7809 31.2004 65.0209 32.5604 63.4742 34.3203L54.6742 31.9203V3.36035H92.3542V11.9203H63.4742V26.0003Z"/>
</mask>
<path d="M14.9592 46.8004L13.3975 48.0497V48.0497L14.9592 46.8004ZM35.2792 46.8004L36.841 48.0497V48.0497L35.2792 46.8004ZM35.2792 16.0003L36.841 14.751H36.841L35.2792 16.0003ZM14.9592 16.0003L13.3975 14.751V14.751L14.9592 16.0003ZM8.71922 9.76035L10.2244 11.0774L10.2311 11.0696L8.71922 9.76035ZM41.5192 9.76035L40.0073 11.0696L40.0141 11.0774L41.5192 9.76035ZM41.5192 53.1203L43.0244 54.4374L43.0311 54.4296L41.5192 53.1203ZM8.71922 53.1203L7.20731 54.4296L7.21407 54.4374L8.71922 53.1203ZM10.7992 33.5204H8.79922C8.79922 39.2611 10.2837 44.1575 13.3975 48.0497L14.9592 46.8004L16.521 45.551C14.0881 42.5099 12.7992 38.553 12.7992 33.5204H10.7992ZM14.9592 46.8004L13.3975 48.0497C16.5029 51.9315 20.4395 54.0004 25.1192 54.0004V52.0004V50.0004C21.7989 50.0004 18.9622 48.6025 16.521 45.551L14.9592 46.8004ZM25.1192 52.0004V54.0004C29.7989 54.0004 33.7355 51.9315 36.841 48.0497L35.2792 46.8004L33.7175 45.551C31.2762 48.6025 28.4396 50.0004 25.1192 50.0004V52.0004ZM35.2792 46.8004L36.841 48.0497C39.9548 44.1575 41.4392 39.2611 41.4392 33.5204H39.4392H37.4392C37.4392 38.553 36.1503 42.5099 33.7175 45.551L35.2792 46.8004ZM39.4392 33.5204H41.4392V29.2803H39.4392H37.4392V33.5204H39.4392ZM39.4392 29.2803H41.4392C41.4392 23.5396 39.9548 18.6432 36.841 14.751L35.2792 16.0003L33.7175 17.2497C36.1503 20.2908 37.4392 24.2477 37.4392 29.2803H39.4392ZM35.2792 16.0003L36.841 14.751C33.7355 10.8692 29.7989 8.80035 25.1192 8.80035V10.8003V12.8003C28.4396 12.8003 31.2762 14.1982 33.7175 17.2497L35.2792 16.0003ZM25.1192 10.8003V8.80035C20.4395 8.80035 16.5029 10.8692 13.3975 14.751L14.9592 16.0003L16.521 17.2497C18.9622 14.1982 21.7989 12.8003 25.1192 12.8003V10.8003ZM14.9592 16.0003L13.3975 14.751C10.2837 18.6432 8.79922 23.5396 8.79922 29.2803H10.7992H12.7992C12.7992 24.2477 14.0881 20.2908 16.521 17.2497L14.9592 16.0003ZM10.7992 29.2803H8.79922V33.5204H10.7992H12.7992V29.2803H10.7992ZM1.99922 33.5204H3.99922V29.2803H1.99922H-0.000781298V33.5204H1.99922ZM1.99922 29.2803H3.99922C3.99922 21.7892 6.1137 15.7753 10.2244 11.0774L8.71922 9.76035L7.21407 8.44334C2.36474 13.9854 -0.000781298 20.9849 -0.000781298 29.2803H1.99922ZM8.71922 9.76035L10.2311 11.0696C14.3573 6.30482 19.2849 4.00035 25.1192 4.00035V2.00035V0.000350952C18.0469 0.000350952 12.0411 2.86921 7.20733 8.45108L8.71922 9.76035ZM25.1192 2.00035V4.00035C30.9535 4.00035 35.8811 6.30482 40.0073 11.0696L41.5192 9.76035L43.0311 8.45108C38.1973 2.86921 32.1916 0.000350952 25.1192 0.000350952V2.00035ZM41.5192 9.76035L40.0141 11.0774C44.1247 15.7753 46.2392 21.7892 46.2392 29.2803H48.2392H50.2392C50.2392 20.9849 47.8737 13.9854 43.0244 8.44334L41.5192 9.76035ZM48.2392 29.2803H46.2392V33.5204H48.2392H50.2392V29.2803H48.2392ZM48.2392 33.5204H46.2392C46.2392 41.011 44.1248 47.0564 40.0073 51.8111L41.5192 53.1203L43.0311 54.4296C47.8736 48.8377 50.2392 41.8164 50.2392 33.5204H48.2392ZM41.5192 53.1203L40.0141 51.8033C35.8904 56.5161 30.9612 58.8004 25.1192 58.8004V60.8004V62.8004C32.1839 62.8004 38.188 59.9646 43.0244 54.4374L41.5192 53.1203ZM25.1192 60.8004V58.8004C19.2772 58.8004 14.348 56.5161 10.2244 51.8033L8.71922 53.1203L7.21407 54.4374C12.0504 59.9646 18.0545 62.8004 25.1192 62.8004V60.8004ZM8.71922 53.1203L10.2311 51.8111C6.11363 47.0564 3.99922 41.011 3.99922 33.5204H1.99922H-0.000781298C-0.000781298 41.8164 2.3648 48.8377 7.20733 54.4296L8.71922 53.1203ZM63.4742 26.0004H61.4742V30.5388L64.8238 27.4764L63.4742 26.0004ZM69.7942 22.0004L69.0514 20.1434L69.0442 20.1463L69.037 20.1493L69.7942 22.0004ZM88.9942 26.3204L90.5098 25.0153V25.0153L88.9942 26.3204ZM88.2742 54.7204L89.6681 56.1546L89.6732 56.1496L89.6784 56.1446L88.2742 54.7204ZM61.1542 56.3204L59.962 57.9262L59.9678 57.9305L59.9736 57.9347L61.1542 56.3204ZM53.8742 45.6003L53.2576 43.6978L51.4064 44.2977L51.9555 46.1647L53.8742 45.6003ZM62.5142 42.8004L64.4611 42.3423L63.9636 40.2282L61.8976 40.8978L62.5142 42.8004ZM66.4342 49.2004L65.2005 50.7745L65.2138 50.7849L65.2273 50.7952L66.4342 49.2004ZM81.9542 48.3204L80.558 46.8884V46.8884L81.9542 48.3204ZM82.1942 32.0004L80.726 33.3584V33.3584L82.1942 32.0004ZM63.4742 34.3204L62.948 36.2499L64.1524 36.5784L64.9765 35.6406L63.4742 34.3204ZM54.6742 31.9203H52.6742V33.4479L54.148 33.8499L54.6742 31.9203ZM54.6742 3.36035V1.36035H52.6742V3.36035H54.6742ZM92.3542 3.36035H94.3542V1.36035H92.3542V3.36035ZM92.3542 11.9203V13.9203H94.3542V11.9203H92.3542ZM63.4742 11.9203V9.92035H61.4742V11.9203H63.4742ZM63.4742 26.0004L64.8238 27.4764C66.5162 25.929 68.4222 24.7225 70.5515 23.8514L69.7942 22.0004L69.037 20.1493C66.4729 21.1982 64.1656 22.6583 62.1247 24.5243L63.4742 26.0004ZM69.7942 22.0004L70.537 23.8573C72.7248 22.9822 74.8466 22.5603 76.9142 22.5603V20.5603V18.5603C74.2885 18.5603 71.6637 19.0985 69.0514 20.1434L69.7942 22.0004ZM76.9142 20.5603V22.5603C81.0354 22.5603 84.5228 24.1927 87.4787 27.6254L88.9942 26.3204L90.5098 25.0153C86.8523 20.768 82.2864 18.5603 76.9142 18.5603V20.5603ZM88.9942 26.3204L87.4787 27.6254C90.4424 31.0671 91.9542 35.2839 91.9542 40.4004H93.9542H95.9542C95.9542 34.4234 94.1594 29.2536 90.5098 25.0153L88.9942 26.3204ZM93.9542 40.4004H91.9542C91.9542 45.7334 90.238 49.9756 86.8701 53.2961L88.2742 54.7204L89.6784 56.1446C93.8838 51.9984 95.9542 46.694 95.9542 40.4004H93.9542ZM88.2742 54.7204L86.8804 53.2861C83.5099 56.5616 79.2034 58.2404 73.7942 58.2404V60.2404V62.2404C80.1184 62.2404 85.4652 60.2391 89.6681 56.1546L88.2742 54.7204ZM73.7942 60.2404V58.2404C69.3223 58.2404 65.5323 57.0445 62.3349 54.706L61.1542 56.3204L59.9736 57.9347C63.9228 60.8229 68.5594 62.2404 73.7942 62.2404V60.2404ZM61.1542 56.3204L62.3464 54.7145C59.2031 52.3808 57.0138 49.187 55.7929 45.036L53.8742 45.6003L51.9555 46.1647C53.4013 51.0804 56.0653 55.0332 59.962 57.9262L61.1542 56.3204ZM53.8742 45.6003L54.4908 47.5029L63.1308 44.7029L62.5142 42.8004L61.8976 40.8978L53.2576 43.6978L53.8742 45.6003ZM62.5142 42.8004L60.5674 43.2584C61.2988 46.367 62.8285 48.9153 65.2005 50.7745L66.4342 49.2004L67.668 47.6262C66.0933 46.392 65.0096 44.6737 64.4611 42.3423L62.5142 42.8004ZM66.4342 49.2004L65.2273 50.7952C67.5964 52.588 70.4366 53.4403 73.6342 53.4403V51.4403V49.4404C71.1785 49.4404 69.2187 48.7994 67.6411 47.6055L66.4342 49.2004ZM73.6342 51.4403V53.4403C77.4871 53.4403 80.7886 52.2501 83.3504 49.7523L81.9542 48.3204L80.558 46.8884C78.8531 48.5506 76.608 49.4404 73.6342 49.4404V51.4403ZM81.9542 48.3204L83.3504 49.7523C85.9207 47.2464 87.1542 43.9842 87.1542 40.1604H85.1542H83.1542C83.1542 43.0565 82.2544 45.2344 80.558 46.8884L81.9542 48.3204ZM85.1542 40.1604H87.1542C87.1542 36.4248 86.0252 33.1966 83.6624 30.6423L82.1942 32.0004L80.726 33.3584C82.31 35.0708 83.1542 37.2826 83.1542 40.1604H85.1542ZM82.1942 32.0004L83.6624 30.6423C81.2913 28.0789 78.2427 26.8004 74.6742 26.8004V28.8004V30.8004C77.1857 30.8004 79.1505 31.6551 80.726 33.3584L82.1942 32.0004ZM74.6742 28.8004V26.8004C72.3652 26.8004 70.0944 27.3643 67.8793 28.4419L68.7542 30.2403L69.6292 32.0388C71.3607 31.1964 73.0366 30.8004 74.6742 30.8004V28.8004ZM68.7542 30.2403L67.8793 28.4419C65.6513 29.5258 63.6818 31.0543 61.9719 33.0001L63.4742 34.3204L64.9765 35.6406C66.3599 34.0664 67.9105 32.8749 69.6292 32.0388L68.7542 30.2403ZM63.4742 34.3204L64.0005 32.3908L55.2005 29.9908L54.6742 31.9203L54.148 33.8499L62.948 36.2499L63.4742 34.3204ZM54.6742 31.9203H56.6742V3.36035H54.6742H52.6742V31.9203H54.6742ZM54.6742 3.36035V5.36035H92.3542V3.36035V1.36035H54.6742V3.36035ZM92.3542 3.36035H90.3542V11.9203H92.3542H94.3542V3.36035H92.3542ZM92.3542 11.9203V9.92035H63.4742V11.9203V13.9203H92.3542V11.9203ZM63.4742 11.9203H61.4742V26.0004H63.4742H65.4742V11.9203H63.4742Z" fill="#2F394D" mask="url(#path-1-outside-1_255_106)"/>
</svg>
