<svg viewBox="0 0 100 63" fill="none" xmlns="http://www.w3.org/2000/svg">
<mask id="path-1-outside-1_346_4" maskUnits="userSpaceOnUse" x="-0.0976562" y="-0.639893" width="100" height="64" fill="black">
<rect fill="white" x="-0.0976562" y="-0.639893" width="100" height="64"/>
<path d="M10.7992 33.5201C10.7992 38.9068 12.1859 43.3334 14.9592 46.8001C17.7326 50.2668 21.1192 52.0001 25.1192 52.0001C29.1192 52.0001 32.5059 50.2668 35.2792 46.8001C38.0526 43.3334 39.4392 38.9068 39.4392 33.5201V29.2801C39.4392 23.8934 38.0526 19.4668 35.2792 16.0001C32.5059 12.5334 29.1192 10.8001 25.1192 10.8001C21.1192 10.8001 17.7326 12.5334 14.9592 16.0001C12.1859 19.4668 10.7992 23.8934 10.7992 29.2801V33.5201ZM1.99922 33.5201V29.2801C1.99922 21.3868 4.23922 14.8801 8.71922 9.76011C13.1992 4.58677 18.6659 2.00011 25.1192 2.00011C31.5726 2.00011 37.0392 4.58677 41.5192 9.76011C45.9992 14.8801 48.2392 21.3868 48.2392 29.2801V33.5201C48.2392 41.4134 45.9992 47.9468 41.5192 53.1201C37.0392 58.2401 31.5726 60.8001 25.1192 60.8001C18.6659 60.8001 13.1992 58.2401 8.71922 53.1201C4.23922 47.9468 1.99922 41.4134 1.99922 33.5201ZM90.9142 16.6401C88.1409 12.7468 83.9276 10.8001 78.2742 10.8001C73.8476 10.8001 70.2209 12.5334 67.3942 16.0001C64.6209 19.4668 63.0476 24.0801 62.6742 29.8401C64.1142 27.1201 66.2209 24.9601 68.9942 23.3601C71.7676 21.7601 74.8342 20.9601 78.1942 20.9601C83.5276 20.9601 88.0076 22.8801 91.6342 26.7201C95.2609 30.5068 97.0742 35.1734 97.0742 40.7201C97.0742 46.4801 95.0742 51.2801 91.0742 55.1201C87.1276 58.9068 82.1676 60.8001 76.1942 60.8001C72.0876 60.8001 68.3542 59.8934 64.9942 58.0801C61.6342 56.2134 59.0476 53.6268 57.2342 50.3201C54.9942 46.1601 53.8742 40.8001 53.8742 34.2401C53.8742 24.5334 56.1676 16.7468 60.7542 10.8801C65.3942 4.96011 71.4476 2.00011 78.9142 2.00011C82.5942 2.00011 85.9542 2.74677 88.9942 4.24011C92.0876 5.73344 94.5142 7.78677 96.2742 10.4001L90.9142 16.6401ZM63.4742 40.4001C63.4742 43.6001 64.7276 46.3468 67.2342 48.6401C69.7942 50.8801 72.8609 52.0001 76.4342 52.0001C79.8476 52.0001 82.6742 50.9334 84.9142 48.8001C87.1542 46.6668 88.2742 44.0001 88.2742 40.8001C88.2742 37.6001 87.1009 34.9601 84.7542 32.8801C82.4609 30.8001 79.5276 29.7601 75.9542 29.7601C72.3809 29.7601 69.3942 30.7734 66.9942 32.8001C64.6476 34.8268 63.4742 37.3601 63.4742 40.4001Z"/>
</mask>
<path d="M14.9592 46.8001L13.3975 48.0495V48.0495L14.9592 46.8001ZM35.2792 46.8001L36.841 48.0495V48.0495L35.2792 46.8001ZM35.2792 16.0001L36.841 14.7507H36.841L35.2792 16.0001ZM14.9592 16.0001L13.3975 14.7507V14.7507L14.9592 16.0001ZM8.71922 9.76011L10.2244 11.0771L10.2311 11.0694L8.71922 9.76011ZM41.5192 9.76011L40.0073 11.0694L40.0141 11.0771L41.5192 9.76011ZM41.5192 53.1201L43.0244 54.4371L43.0311 54.4294L41.5192 53.1201ZM8.71922 53.1201L7.20731 54.4294L7.21407 54.4371L8.71922 53.1201ZM10.7992 33.5201H8.79922C8.79922 39.2608 10.2837 44.1572 13.3975 48.0495L14.9592 46.8001L16.521 45.5507C14.0881 42.5097 12.7992 38.5527 12.7992 33.5201H10.7992ZM14.9592 46.8001L13.3975 48.0495C16.5029 51.9313 20.4395 54.0001 25.1192 54.0001V52.0001V50.0001C21.7989 50.0001 18.9622 48.6023 16.521 45.5507L14.9592 46.8001ZM25.1192 52.0001V54.0001C29.7989 54.0001 33.7355 51.9313 36.841 48.0495L35.2792 46.8001L33.7175 45.5507C31.2762 48.6023 28.4396 50.0001 25.1192 50.0001V52.0001ZM35.2792 46.8001L36.841 48.0495C39.9548 44.1572 41.4392 39.2608 41.4392 33.5201H39.4392H37.4392C37.4392 38.5527 36.1503 42.5097 33.7175 45.5507L35.2792 46.8001ZM39.4392 33.5201H41.4392V29.2801H39.4392H37.4392V33.5201H39.4392ZM39.4392 29.2801H41.4392C41.4392 23.5394 39.9548 18.643 36.841 14.7507L35.2792 16.0001L33.7175 17.2495C36.1503 20.2906 37.4392 24.2475 37.4392 29.2801H39.4392ZM35.2792 16.0001L36.841 14.7507C33.7355 10.8689 29.7989 8.8001 25.1192 8.8001V10.8001V12.8001C28.4396 12.8001 31.2762 14.1979 33.7175 17.2495L35.2792 16.0001ZM25.1192 10.8001V8.8001C20.4395 8.8001 16.5029 10.8689 13.3975 14.7507L14.9592 16.0001L16.521 17.2495C18.9622 14.1979 21.7989 12.8001 25.1192 12.8001V10.8001ZM14.9592 16.0001L13.3975 14.7507C10.2837 18.643 8.79922 23.5394 8.79922 29.2801H10.7992H12.7992C12.7992 24.2475 14.0881 20.2906 16.521 17.2495L14.9592 16.0001ZM10.7992 29.2801H8.79922V33.5201H10.7992H12.7992V29.2801H10.7992ZM1.99922 33.5201H3.99922V29.2801H1.99922H-0.000781298V33.5201H1.99922ZM1.99922 29.2801H3.99922C3.99922 21.7889 6.1137 15.775 10.2244 11.0771L8.71922 9.76011L7.21407 8.4431C2.36474 13.9852 -0.000781298 20.9846 -0.000781298 29.2801H1.99922ZM8.71922 9.76011L10.2311 11.0694C14.3573 6.30458 19.2849 4.00011 25.1192 4.00011V2.00011V0.000106812C18.0469 0.000106812 12.0411 2.86897 7.20733 8.45084L8.71922 9.76011ZM25.1192 2.00011V4.00011C30.9535 4.00011 35.8811 6.30458 40.0073 11.0694L41.5192 9.76011L43.0311 8.45084C38.1973 2.86897 32.1916 0.000106812 25.1192 0.000106812V2.00011ZM41.5192 9.76011L40.0141 11.0771C44.1247 15.775 46.2392 21.7889 46.2392 29.2801H48.2392H50.2392C50.2392 20.9846 47.8737 13.9852 43.0244 8.4431L41.5192 9.76011ZM48.2392 29.2801H46.2392V33.5201H48.2392H50.2392V29.2801H48.2392ZM48.2392 33.5201H46.2392C46.2392 41.0108 44.1248 47.0561 40.0073 51.8108L41.5192 53.1201L43.0311 54.4294C47.8736 48.8374 50.2392 41.8161 50.2392 33.5201H48.2392ZM41.5192 53.1201L40.0141 51.8031C35.8904 56.5158 30.9612 58.8001 25.1192 58.8001V60.8001V62.8001C32.1839 62.8001 38.188 59.9644 43.0244 54.4371L41.5192 53.1201ZM25.1192 60.8001V58.8001C19.2772 58.8001 14.348 56.5158 10.2244 51.8031L8.71922 53.1201L7.21407 54.4371C12.0504 59.9644 18.0545 62.8001 25.1192 62.8001V60.8001ZM8.71922 53.1201L10.2311 51.8108C6.11363 47.0561 3.99922 41.0108 3.99922 33.5201H1.99922H-0.000781298C-0.000781298 41.8161 2.3648 48.8374 7.20733 54.4294L8.71922 53.1201ZM90.9142 16.6401L89.2852 17.8005L90.7671 19.8808L92.4314 17.9433L90.9142 16.6401ZM67.3942 16.0001L65.8442 14.7362L65.8383 14.7434L65.8325 14.7507L67.3942 16.0001ZM62.6742 29.8401L60.6784 29.7107L64.4418 30.7759L62.6742 29.8401ZM68.9942 23.3601L67.9948 21.6277V21.6277L68.9942 23.3601ZM91.6342 26.7201L90.1802 28.0934L90.1898 28.1035L91.6342 26.7201ZM91.0742 55.1201L92.4589 56.5633L92.4593 56.5629L91.0742 55.1201ZM64.9942 58.0801L64.0229 59.8284L64.0336 59.8344L64.0444 59.8402L64.9942 58.0801ZM57.2342 50.3201L55.4733 51.2683L55.4769 51.2751L55.4806 51.2818L57.2342 50.3201ZM60.7542 10.8801L59.1801 9.64634L59.1786 9.64826L60.7542 10.8801ZM88.9942 4.2401L88.1124 6.03526L88.1247 6.04121L88.9942 4.2401ZM96.2742 10.4001L97.7914 11.7033L98.7845 10.5471L97.9331 9.2829L96.2742 10.4001ZM67.2342 48.6401L65.8842 50.1157L65.9005 50.1307L65.9172 50.1453L67.2342 48.6401ZM84.9142 48.8001L83.5349 47.3518V47.3518L84.9142 48.8001ZM84.7542 32.8801L83.4106 34.3615L83.4191 34.3692L83.4276 34.3768L84.7542 32.8801ZM66.9942 32.8001L65.7039 31.272L65.6954 31.2792L65.687 31.2865L66.9942 32.8001ZM90.9142 16.6401L92.5432 15.4797C89.3227 10.9587 84.4397 8.8001 78.2742 8.8001V10.8001V12.8001C83.4154 12.8001 86.9591 14.5349 89.2852 17.8005L90.9142 16.6401ZM78.2742 10.8001V8.8001C73.2392 8.8001 69.046 10.8094 65.8442 14.7362L67.3942 16.0001L68.9443 17.264C71.3957 14.2575 74.4559 12.8001 78.2742 12.8001V10.8001ZM67.3942 16.0001L65.8325 14.7507C62.7361 18.6212 61.0703 23.6637 60.6784 29.7107L62.6742 29.8401L64.67 29.9695C65.0248 24.4965 66.5057 20.3123 68.956 17.2495L67.3942 16.0001ZM62.6742 29.8401L64.4418 30.7759C65.6985 28.4022 67.5324 26.5124 69.9937 25.0925L68.9942 23.3601L67.9948 21.6277C64.9094 23.4078 62.53 25.838 60.9066 28.9043L62.6742 29.8401ZM68.9942 23.3601L69.9937 25.0925C72.4478 23.6766 75.167 22.9601 78.1942 22.9601V20.9601V18.9601C74.5014 18.9601 71.0873 19.8436 67.9948 21.6277L68.9942 23.3601ZM78.1942 20.9601V22.9601C82.9834 22.9601 86.9355 24.6578 90.1802 28.0934L91.6342 26.7201L93.0882 25.3469C89.0796 21.1024 84.0717 18.9601 78.1942 18.9601V20.9601ZM91.6342 26.7201L90.1898 28.1035C93.4378 31.4947 95.0742 35.656 95.0742 40.7201H97.0742H99.0742C99.0742 34.6909 97.084 29.5188 93.0786 25.3367L91.6342 26.7201ZM97.0742 40.7201H95.0742C95.0742 45.9593 93.2795 50.2306 89.6892 53.6773L91.0742 55.1201L92.4593 56.5629C96.8689 52.3296 99.0742 47.001 99.0742 40.7201H97.0742ZM91.0742 55.1201L89.6896 53.6769C86.1512 57.0718 81.7035 58.8001 76.1942 58.8001V60.8001V62.8001C82.6317 62.8001 88.1039 60.7417 92.4589 56.5633L91.0742 55.1201ZM76.1942 60.8001V58.8001C72.3934 58.8001 68.9904 57.9641 65.9441 56.3201L64.9942 58.0801L64.0444 59.8402C67.718 61.8228 71.7817 62.8001 76.1942 62.8001V60.8001ZM64.9942 58.0801L65.9655 56.3318C62.9286 54.6446 60.6161 52.3277 58.9878 49.3584L57.2342 50.3201L55.4806 51.2818C57.479 54.9258 60.3399 57.7823 64.0229 59.8284L64.9942 58.0801ZM57.2342 50.3201L58.9952 49.3719C56.9612 45.5945 55.8742 40.591 55.8742 34.2401H53.8742H51.8742C51.8742 41.0093 53.0273 46.7258 55.4733 51.2683L57.2342 50.3201ZM53.8742 34.2401H55.8742C55.8742 24.8436 58.0917 17.5328 62.3298 12.1119L60.7542 10.8801L59.1786 9.64826C54.2434 15.9608 51.8742 24.2233 51.8742 34.2401H53.8742ZM60.7542 10.8801L62.3283 12.1139C66.5925 6.67339 72.0674 4.00011 78.9142 4.00011V2.00011V0.000106812C70.8277 0.000106812 64.1959 3.24683 59.1801 9.64634L60.7542 10.8801ZM78.9142 2.00011V4.00011C82.3154 4.00011 85.37 4.68807 88.1124 6.03521L88.9942 4.2401L89.876 2.445C86.5384 0.805477 82.873 0.000106812 78.9142 0.000106812V2.00011ZM88.9942 4.2401L88.1247 6.04121C90.9287 7.39484 93.0709 9.224 94.6153 11.5173L96.2742 10.4001L97.9331 9.2829C95.9576 6.34954 93.2464 4.07204 89.8637 2.439L88.9942 4.2401ZM96.2742 10.4001L94.7571 9.09692L89.3971 15.3369L90.9142 16.6401L92.4314 17.9433L97.7914 11.7033L96.2742 10.4001ZM63.4742 40.4001H61.4742C61.4742 44.1992 62.9922 47.4698 65.8842 50.1157L67.2342 48.6401L68.5842 47.1645C66.4629 45.2237 65.4742 43.001 65.4742 40.4001H63.4742ZM67.2342 48.6401L65.9172 50.1453C68.8614 52.7214 72.4031 54.0001 76.4342 54.0001V52.0001V50.0001C73.3187 50.0001 70.7271 49.0388 68.5512 47.135L67.2342 48.6401ZM76.4342 52.0001V54.0001C80.3032 54.0001 83.6417 52.7739 86.2935 50.2484L84.9142 48.8001L83.5349 47.3518C81.7067 49.093 79.3919 50.0001 76.4342 50.0001V52.0001ZM84.9142 48.8001L86.2935 50.2484C88.945 47.7232 90.2742 44.5262 90.2742 40.8001H88.2742H86.2742C86.2742 43.474 85.3634 45.6104 83.5349 47.3518L84.9142 48.8001ZM88.2742 40.8001H90.2742C90.2742 37.0412 88.8657 33.8518 86.0808 31.3834L84.7542 32.8801L83.4276 34.3768C85.3361 36.0684 86.2742 38.159 86.2742 40.8001H88.2742ZM84.7542 32.8801L86.0979 31.3987C83.3802 28.9338 79.9426 27.7601 75.9542 27.7601V29.7601V31.7601C79.1125 31.7601 81.5416 32.6664 83.4106 34.3615L84.7542 32.8801ZM75.9542 29.7601V27.7601C71.9775 27.7601 68.5142 28.8989 65.7039 31.272L66.9942 32.8001L68.2846 34.3282C70.2743 32.648 72.7843 31.7601 75.9542 31.7601V29.7601ZM66.9942 32.8001L65.687 31.2865C62.9105 33.6843 61.4742 36.7657 61.4742 40.4001H63.4742H65.4742C65.4742 37.9545 66.3846 35.9692 68.3015 34.3138L66.9942 32.8001Z" fill="#2F394D" mask="url(#path-1-outside-1_346_4)"/>
</svg>
